<svg id="Layer_1" xmlns="http://www.w3.org/2000/svg" viewBox="0 0 476 242"><style>.st0{opacity:.13;fill:#1a98fb}.st1{fill:#0093ff}.st2{opacity:.36}.st3{fill:#5fb2d6}.st3,.st4,.st5{stroke:#0093ff;stroke-width:.769;stroke-miterlimit:10}.st4{fill:#b7e6f9}.st5{fill:#f2f9ff}.st6{fill:#d0e7f7}.st7{fill:#1996fc}.st8{fill:#fff}.st9{fill:#f2f9ff;stroke:#1a98fb;stroke-width:.769;stroke-miterlimit:10}.st10{fill:#065184}.st10,.st11,.st12{fill-rule:evenodd;clip-rule:evenodd}.st11{fill:#1996fc}.st12{fill:#ea9bad}.st13{fill:#0789e2}.st13,.st14,.st15,.st16,.st17,.st18{fill-rule:evenodd;clip-rule:evenodd}.st14{fill:#22aefc}.st15{fill:#e1eff9}.st16{fill:#cae7f9}.st17{fill:#f4a4b3}.st18{fill:#056499}.st19{fill:#7fc7f7;stroke:#0093ff;stroke-width:.3845;stroke-miterlimit:10}.st20{opacity:.76;fill:#fff}.st21,.st22{opacity:.68;fill:#fff}.st22{opacity:.49}.st23{fill:#fff;stroke:#0093ff;stroke-width:.3845;stroke-miterlimit:10}.st24{opacity:.63;fill:#1996fc}.st25{opacity:.29}.st25,.st26,.st27{fill:#1996fc}.st26{opacity:.25}.st27{opacity:.2}.st28{fill:#5fbeff}.st29{fill:#f2f9ff}.st30{fill-rule:evenodd;clip-rule:evenodd;fill:#f0f4f7}</style><path class="st0" d="M238.1 219.3L0 217.7C.9 98 108.1 0 238.1 0c130.6 0 238.1 99 238.1 219.3H238.1z"/><path class="st0" d="M244.3 220l-194.8-1.3c.8-98 88.5-178.2 194.8-178.2 106.9 0 194.8 81 194.8 179.5H244.3z"/><path class="st1" d="M397.4 178.3h-.1c-.7 0-1.4-.3-1.9-.9-.5-.5-.8-1.2-.7-2 0-.7.3-1.4.9-1.9.5-.5 1.2-.8 2-.7 1.5.1 2.7 1.4 2.6 2.9 0 .7-.3 1.4-.9 1.9-.6.4-1.2.7-1.9.7zm0-4.6c-.5 0-.9.2-1.3.5s-.6.8-.6 1.3.2 1 .5 1.3c.3.4.8.6 1.3.6s1-.2 1.3-.5c.4-.3.6-.8.6-1.3.1-1-.7-1.9-1.8-1.9zm-18.5 15.6h-.1c-.7 0-1.4-.3-1.9-.9-.5-.5-.8-1.2-.7-2 0-.7.3-1.4.9-1.9s1.2-.8 2-.7c.7 0 1.4.3 1.9.9.5.5.8 1.2.7 2 0 .7-.3 1.4-.9 1.9-.5.5-1.2.7-1.9.7zm0-4.6c-.5 0-.9.2-1.3.5s-.6.8-.6 1.3.2 1 .5 1.3c.3.4.8.6 1.3.6s1-.2 1.3-.5c.4-.3.6-.8.6-1.3s-.2-1-.5-1.3c-.2-.4-.7-.6-1.3-.6.1 0 .1 0 0 0zm-14.9 2.9h-.1c-.7 0-1.4-.3-1.9-.9-.5-.5-.8-1.2-.7-2 0-.7.3-1.4.9-1.9s1.2-.8 2-.7c1.5.1 2.7 1.4 2.6 2.9 0 .7-.3 1.4-.9 1.9-.6.4-1.2.7-1.9.7zm0-4.7c-.5 0-.9.2-1.3.5s-.6.8-.6 1.3.2 1 .5 1.3c.3.4.8.6 1.3.6s1-.2 1.3-.5c.4-.3.6-.8.6-1.3.1-1-.7-1.8-1.8-1.9z"/><path class="st1" d="M363.5 187.1h.9v31.4h-.9zm-12.4 21.6h-.1c-1.5-.1-2.7-1.4-2.6-2.9.1-1.5 1.4-2.7 2.9-2.6 1.5.1 2.7 1.4 2.6 2.9-.1 1.5-1.3 2.6-2.8 2.6zm0-4.6c-1 0-1.8.8-1.9 1.8 0 1 .8 1.9 1.8 1.9s1.9-.8 1.9-1.8c.1-1-.7-1.9-1.8-1.9.1 0 .1 0 0 0z"/><path class="st1" d="M350.7 208.3h.9v10.5h-.9zm58 .5h-.1c-1.5-.1-2.7-1.4-2.6-2.9.1-1.5 1.4-2.7 2.9-2.6 1.5.1 2.7 1.4 2.6 2.9-.1 1.5-1.3 2.6-2.8 2.6zm0-4.6c-1 0-1.8.8-1.9 1.8 0 1 .8 1.9 1.8 1.9 1 .1 1.9-.8 1.9-1.8.1-1-.7-1.8-1.8-1.9z"/><path class="st1" d="M408.2 208.4h.9v10.5h-.9zm-11.3-30.5h.9v40.6h-.9zm-12.6 40.6h-.9v-11.4l-4.9-4.1v-14.1h.9v13.7l4.9 4.1zM97.7 177.8c-.5-.5-.9-1.2-.9-1.9-.1-1.5 1.1-2.8 2.6-2.9.7 0 1.4.2 2 .7.5.5.9 1.2.9 1.9s-.2 1.4-.7 2c-.5.5-1.2.9-1.9.9h-.1c-.8 0-1.4-.2-1.9-.7zm1.7-3.9c-1 0-1.8.9-1.8 1.9 0 .5.2 1 .6 1.3.4.3.8.5 1.3.5s1-.2 1.3-.6c.3-.4.5-.8.5-1.3s-.2-1-.6-1.3c-.3-.3-.7-.5-1.3-.5.1 0 .1 0 0 0zm16.7 14.9c-.5-.5-.9-1.2-.9-1.9s.2-1.4.7-2c.5-.5 1.2-.9 1.9-.9.8 0 1.4.2 2 .7.5.5.9 1.2.9 1.9s-.2 1.4-.7 2c-.5.5-1.2.9-1.9.9h-.1c-.7.1-1.4-.2-1.9-.7zm1.8-3.9c-.5 0-1 .2-1.3.6-.3.4-.5.8-.5 1.3s.2 1 .6 1.3c.4.3.8.5 1.3.5s1-.2 1.3-.6c.3-.4.5-.8.5-1.3s-.2-1-.6-1.3c-.3-.3-.7-.5-1.3-.5.1 0 0 0 0 0zm13.2 2.2c-.5-.5-.9-1.2-.9-1.9-.1-1.5 1.1-2.8 2.6-2.9.8 0 1.4.2 2 .7.5.5.9 1.2.9 1.9s-.2 1.4-.7 2c-.5.5-1.2.9-1.9.9h-.1c-.7 0-1.4-.3-1.9-.7zm1.8-3.9c-1 0-1.8.9-1.8 1.9 0 .5.2 1 .6 1.3.4.3.8.5 1.3.5s1-.2 1.3-.6c.3-.4.5-.8.5-1.3s-.2-1-.6-1.3c-.3-.4-.8-.5-1.3-.5z"/><path class="st1" d="M132.5 187.3h.9v31.4h-.9zm10.5 19c-.1-1.5 1.1-2.8 2.6-2.9 1.5-.1 2.8 1.1 2.9 2.6.1 1.5-1.1 2.8-2.6 2.9h-.1c-1.5.1-2.7-1.1-2.8-2.6zm2.7-2c-1 0-1.8.9-1.8 1.9s.9 1.8 1.9 1.8c1 0 1.8-.9 1.8-1.9 0-1-.8-1.8-1.9-1.8.1 0 0 0 0 0z"/><path class="st1" d="M145.3 208.5h.9V219h-.9zm-59.8-2.1c-.1-1.5 1.1-2.8 2.6-2.9 1.5-.1 2.8 1.1 2.9 2.6.1 1.5-1.1 2.8-2.6 2.9h-.1c-1.5.1-2.8-1.1-2.8-2.6zm2.7-1.9c-1 0-1.8.9-1.8 1.9 0 1 .9 1.8 1.9 1.8 1 0 1.8-.9 1.8-1.9 0-1.1-.9-1.8-1.9-1.8z"/><path class="st1" d="M87.8 208.6h.9v10.5h-.9zm11.3-30.5h.9v40.6h-.9zm13.5 40.6h.9v-11.3l4.9-4.2v-14.1h-.9v13.7l-4.9 4.1z"/><g class="st2"><path transform="rotate(-1.612 96 135.37)" class="st1" d="M91.4 130.7h9.3v9.3h-9.3z"/><path transform="rotate(-127.974 114.734 136.536)" class="st1" d="M112.4 134.2h4.6v4.6h-4.6z"/><path transform="rotate(-173.514 102.003 151.387)" class="st1" d="M99.7 149.1h4.6v4.6h-4.6z"/></g><g class="st2"><path transform="rotate(-173.514 111.308 167.151)" class="st1" d="M109.6 165.4h3.4v3.4h-3.4z"/></g><g class="st2"><path transform="rotate(-178.388 342.422 171.107)" class="st1" d="M337.8 166.5h9.3v9.3h-9.3z"/><path transform="rotate(-52.026 323.69 172.275)" class="st1" d="M321.4 170h4.6v4.6h-4.6z"/><path transform="rotate(-6.486 336.463 187.169)" class="st1" d="M334.1 184.8h4.6v4.6h-4.6z"/></g><g class="st2"><path transform="rotate(-6.486 327.156 202.934)" class="st1" d="M325.4 201.2h3.4v3.4h-3.4z"/></g><path class="st3" d="M259.6 215.8H213c-21.7 0-39.3-17.6-39.3-39.3V54.2c0-21.7 17.6-39.3 39.3-39.3h46.6c21.7 0 39.3 17.6 39.3 39.3v122.3c-.1 21.7-17.6 39.3-39.3 39.3z"/><path class="st4" d="M252.7 219.2h-46.6c-21.7 0-39.3-17.6-39.3-39.3V57.7c0-21.7 17.6-39.3 39.3-39.3h46.6c21.7 0 39.3 17.6 39.3 39.3V180c0 21.6-17.6 39.2-39.3 39.2z"/><path class="st5" d="M251.5 197.1h-41c-18.1 0-32.9-14.7-32.9-32.9V65c0-18.1 14.7-32.9 32.9-32.9h41c18.1 0 32.9 14.7 32.9 32.9v99.2c0 18.2-14.7 32.9-32.9 32.9z"/><path class="st6" d="M184.9 185.7c0 3.9 1.8 7.3 4.5 9.5-.5-1.4-.8-2.9-.8-4.5m87.2-147.8c2.7 0 5.3 1 7.3 2.6-1.7-4.5-6-7.6-10.9-7.6"/><ellipse class="st7" cx="208.3" cy="26.2" rx="1.6" ry="1.4"/><path class="st7" d="M219.7 25.6h28.8v1.8h-28.8zm58.8 124.1l3.3-6.4c1.1-2.2-.4-4.8-2.7-4.8h-11.5c-2.4 0-4.4-2.1-4.4-4.7V123c0-2.6 1.9-4.7 4.4-4.7h30.6c2.4 0 4.4 2.1 4.4 4.7v11.7c0 2.6-1.9 4.7-4.4 4.7h-5.7c-1.9 0-3.8.8-5.2 2.1l-8.8 8.2z"/><path class="st8" d="M295 131.8h-26.2c-.5 0-1-.4-1-1 0-.5.4-1 1-1H295c.5 0 1 .4 1 1s-.5 1-1 1zm-14.8-5.2h-11.8c-.5 0-1-.4-1-1 0-.5.4-1 1-1h11.8c.5 0 1 .4 1 1-.1.6-.5 1-1 1zm12.9-.2h-8.7c-.5 0-.9-.4-.9-.9s.4-.9.9-.9h8.7c.5 0 .9.4.9.9s-.4.9-.9.9z"/><path class="st0" d="M197.2 235.9c0 2.6-13.5 6.1-23.8 6.1s-14.8-1-14.8-3.7c0-2.6 11.8-5.9 22-5.9s16.6.9 16.6 3.5zm50.5.6c.2 2.6 13.9 5.3 24.1 4.7 10.2-.6 14.7-1.9 14.6-4.6-.2-2.6-12.1-5.2-22.3-4.6-10.3.7-16.6 1.9-16.4 4.5z"/><ellipse class="st9" cx="227.3" cy="208.3" rx="5.1" ry="4.9"/><path class="st11" d="M260.7 236.7s.5 2.1-.4 2.5c-.9.4-11.5-2.9-9-4.3 3.2-1.8 9.4 1.8 9.4 1.8zm14-1s.5 2.1-.4 2.5-11.5-2.9-9-4.3c3.2-1.9 9.4 1.8 9.4 1.8z"/><path class="st12" d="M264.7 166.1h5.3l.6-5.5-6.3 2.2z"/><path id="XMLID_60_" class="st13" d="M276.2 191.3c-.2 0-.9 6.4-1.2 7.2-1.2 2.9-3.2 5.3-4 8.4-1.1 4.1-.2 8.1.4 12.1.4 2.8.9 5.6 1.6 8.4.3 1.4.6 2.7 1 4.1.1.4 1.3 3.5 1 3.8-.8.7-2 .9-3 .8-.9 0-3 0-3.6-.7-1.1-1.2-.8-3.6-1-5-.3-2.3-.7-4.7-1.3-6.9-1.1-4.3-2.7-8.5-3.8-12.8-1.1-3.8-.3-8.4 1.3-12l3.3-5.1c-.2-.2 9.3-2.3 9.3-2.3z"/><path id="XMLID_58_" class="st14" d="M258 194.1c-.5.5-.7 2-1 2.6l-1.8 5.4c-1.9 5.7-2.1 11.7-1.7 17.6.2 2.9.7 5.8.9 8.8.1 1-.3 8 .3 8.2 1.2.5 5.8 2.2 6.2.1.1-.5 0-.9-.1-1.4-.7-3.6-.8-7.3-.5-11 .4-4.1.2-7.8.5-11.9.4-4.9 4.3-9.3 7.3-12.9 2.4-2.9 3.1-7 1.6-10.6-1.6-4.6-11.7 5.1-11.7 5.1z"/><path id="XMLID_56_" class="st15" d="M270.2 164.4c-6.6.7-6.7 10.7-6.4 13.3l7.3 1.2c.1-2.2.3-4.9 1.8-9.4 1.6-4.5-2.7-5.1-2.7-5.1z"/><path id="XMLID_54_" class="st16" d="M273.4 168.2c-.6-1.4-1.6-3.8-5.9-3.9-4.3-.1-6.9 1.4-8.1 3.7-1.3 2.5-2 1.8 0 9.6s-.4 13.3-2.4 16.4c-2 3 0 2.8 0 2.8s14.2 6 19.5-2.4c0 0-1.4-11.1-1.4-14 .1-3-.7-9.8-1.7-12.2z"/><path id="XMLID_52_" class="st17" d="M260.2 149.6s-1.2 12.3 3.7 13.9c7.2 2.2 8.7-5.8 7.3-6.6l-4.5-6.4-6.5-.9z"/><path id="XMLID_50_" class="st17" d="M264.1 165.7c-5.1-.4-5.7 8.2-5.9 10.5 0 1.1-.1 1.8 0 2.3-.1 0-.3.2-.6.3-1.8 1-5 3.3-7.4 4.4-1.4.6-2.9 1.3-3.1 1.3-4.1 1.8-5.2 1.9-4.3 2.9 2 2.4 7.5.4 7.8-.5.2-.6 3.9-1.6 6.8-2.8 3-1.3 5.9-3.1 6-4.6.1-2 1-4.5 2.4-8.6 1.6-3.9-1.7-5.2-1.7-5.2z"/><path id="XMLID_38_" class="st15" d="M263.8 165.2c-6.6.6-6.8 10.7-6.6 13.2l7.3 1.3c.1-2.2.3-4.9 1.9-9.4 1.7-4.4-2.6-5.1-2.6-5.1z"/><path class="st17" d="M262.8 157.9s-.3-2 .7-1.9c1.1.1 1.9 2.4.9 2.8s-1.6-.9-1.6-.9zm-2.5-3.9s-.8 3.2-.6 3.9c.2.7 1.3.9 1.3.9l-.7-4.8z"/><path class="st18" d="M272.8 149.6c6.6 3.7-1.2 10.2-1.5 11.3-.2 1.1-.9 1-1.6.9-.8-.1-1.9-2.1-1.9-2.1 1.7.3 1.7-3.7.8-4-1-.3-1.5 1.7-1.5 1.7s-1.2-.1-1.2-.8-.2-5.6-1.9-5.9c-1.6-.3-4.9-.1-4.3-2.2.7-2.1 5.8-1.7 5.8-1.7s4.8-.3 5.7 2.9c.1 0 .7-.6 1.6-.1z"/><path class="st18" d="M266 158.3s-.1 2-1.7 2.1c-1.6.1-3.4-1.2-3.7-.7l.5.9s2 0 2.6 1c.7 1-.6 1.8-.6 1.8s.5.7 2.4.5 4.5-.7 5-2.6c.5-1.9-2.6-1.4-2.6-1.4s-.7 0-.9-2.5l-1.1-.4.1 1.3z"/><path class="st8" d="M361.6 151.3h-31.1c-10.3 0-18.6-8.3-18.6-18.6v-7.5c0-10.3 8.3-18.6 18.6-18.6h31.1c10.3 0 18.6 8.3 18.6 18.6v7.5c0 10.2-8.3 18.6-18.6 18.6z"/><path class="st19" d="M358.1 153.2H327c-10.3 0-18.6-8.3-18.6-18.6v-7.5c0-10.3 8.3-18.6 18.6-18.6h31.1c10.3 0 18.6 8.3 18.6 18.6v7.5c0 10.3-8.3 18.6-18.6 18.6z"/><path class="st8" d="M367.4 120.4h-49.5c-.8 0-1.4-.6-1.4-1.4 0-.8.6-1.4 1.4-1.4h49.5c.8 0 1.4.6 1.4 1.4 0 .8-.6 1.4-1.4 1.4z"/><path class="st20" d="M367 129.4h-49.5c-.8 0-1.4-.6-1.4-1.4 0-.8.6-1.4 1.4-1.4H367c.8 0 1.4.6 1.4 1.4 0 .8-.6 1.4-1.4 1.4z"/><path class="st21" d="M366.4 137.9h-49.5c-.8 0-1.4-.6-1.4-1.4 0-.8.6-1.4 1.4-1.4h49.5c.8 0 1.4.6 1.4 1.4 0 .8-.7 1.4-1.4 1.4z"/><path class="st22" d="M366 146.4h-49.5c-.8 0-1.4-.6-1.4-1.4 0-.8.6-1.4 1.4-1.4H366c.8 0 1.4.6 1.4 1.4 0 .8-.6 1.4-1.4 1.4z"/><path class="st7" d="M137.3 107.1H98.6c-12.8 0-23.1-10.4-23.1-23.1v-9.3c0-12.8 10.4-23.1 23.1-23.1h38.7c12.8 0 23.1 10.4 23.1 23.1V84c.1 12.8-10.3 23.1-23.1 23.1z"/><path class="st23" d="M135.1 108.8H96.3c-12.8 0-23.1-10.4-23.1-23.1v-9.3c0-12.8 10.4-23.1 23.1-23.1H135c12.8 0 23.1 10.4 23.1 23.1v9.3c.1 12.7-10.2 23.1-23 23.1z"/><path class="st24" d="M146.6 67.9H85c-1 0-1.7-.8-1.7-1.7 0-1 .8-1.7 1.7-1.7h61.6c1 0 1.7.8 1.7 1.7.1 1-.7 1.7-1.7 1.7z"/><path class="st25" d="M146.1 79.2H84.5c-1 0-1.7-.8-1.7-1.7 0-1 .8-1.7 1.7-1.7h61.6c1 0 1.7.8 1.7 1.7 0 .9-.7 1.7-1.7 1.7z"/><path class="st26" d="M145.3 89.7H83.7c-1 0-1.7-.8-1.7-1.7 0-1 .8-1.7 1.7-1.7h61.6c1 0 1.7.8 1.7 1.7.1 1-.7 1.7-1.7 1.7z"/><path class="st27" d="M144.9 100.3H83.3c-1 0-1.7-.8-1.7-1.7 0-1 .8-1.7 1.7-1.7h61.6c1 0 1.7.8 1.7 1.7.1.9-.7 1.7-1.7 1.7z"/><path class="st28" d="M174.4 142.7l-3.3-6c-1.1-2 .4-4.5 2.7-4.5h11.5c2.4 0 4.4-1.9 4.4-4.4v-10.1c0-2.4-1.9-4.4-4.4-4.4h-30.6c-2.4 0-4.4 1.9-4.4 4.4v10.9c0 2.4 1.9 4.4 4.4 4.4h5.7c1.9 0 3.8.7 5.2 2l8.8 7.7z"/><path class="st29" d="M183.2 121.7H157c-.5 0-1-.4-1-1 0-.5.4-1 1-1h26.2c.5 0 1 .4 1 1 0 .5-.4 1-1 1zm-12.6 5.2h-11.8c-.5 0-1-.4-1-1 0-.5.4-1 1-1h11.8c.5 0 1 .4 1 1s-.5 1-1 1z"/><path class="st11" d="M178.7 234.3s-.5 2.1.4 2.5c.9.4 11.5-2.9 9-4.3-3.2-1.8-9.4 1.8-9.4 1.8zm-14-1.1s-.5 2.1.4 2.5c.9.4 11.5-2.9 9-4.3-3.1-1.8-9.4 1.8-9.4 1.8z"/><path class="st17" d="M180.2 167.9l7.9-4.7c.6-.4 1.1-1 1.2-1.7.1-.6.4-1.2 1.1-1.6 1.4-.7 3.6-1 3.5-.5-.1.2-.6.7-1.1 1-.3.2-.3.6 0 .8.4.3.8.8.6 1.6-.4 1.2-1.1 2.7-2.6 3.1-.3.1-.6.2-.9.4l-9.9 7.1.2-5.5z"/><path class="st12" d="M174.8 163.6h-5.3v-3.7l5.6.4z"/><path id="XMLID_34_" class="st30" d="M163.2 188.9c.2 0 .9 6.4 1.2 7.2 1.2 2.9 3.2 5.3 4 8.4 1.1 4.1.2 8.1-.4 12.1-.4 2.8-.9 5.6-1.6 8.4-.3 1.4-.6 2.7-1 4.1-.1.4-1.3 3.5-1 3.8.8.7 2 .9 3 .8.9 0 3 0 3.6-.7 1.1-1.2.8-3.6 1-5 .3-2.3.7-4.7 1.3-6.9 1.1-4.3 2.7-8.5 3.8-12.8 1.1-3.8.3-8.4-1.3-12l-3.3-5.1s-9.2-2.3-9.3-2.3z"/><path id="XMLID_32_" class="st30" d="M181.4 191.7c.5.5.7 2 1 2.6l1.8 5.4c1.9 5.7 2.1 11.7 1.7 17.6-.2 2.9-.7 5.8-.9 8.8-.1 1 .3 8-.3 8.2-1.2.5-5.8 2.2-6.2.1-.1-.5 0-.9.1-1.4.7-3.6.8-7.3.5-11-.4-4.1-.2-7.8-.5-11.9-.4-4.9-4.3-9.3-7.3-12.9-2.4-2.9-3.1-7-1.6-10.6 1.7-4.7 11.7 5.1 11.7 5.1z"/><path id="XMLID_30_" class="st13" d="M169.2 162c6.6.7 6.7 10.7 6.4 13.3l-7.3 1.2c-.1-2.2-.3-4.9-1.8-9.4-1.6-4.5 2.7-5.1 2.7-5.1z"/><path id="XMLID_28_" class="st11" d="M166 165.7c.6-1.4 1.6-3.8 5.9-3.9 4.3-.1 6.9 1.4 8.1 3.7 1.3 2.5 2 1.8 0 9.6s.4 13.3 2.4 16.4c2 3 0 2.8 0 2.8s-14.2 6-19.5-2.4c0 0 1.4-11.1 1.4-14 0-2.9.7-9.8 1.7-12.2z"/><path id="XMLID_26_" class="st17" d="M179.7 152.1s.9 8-4.2 9c-5.2 1-4.4-6.1-4.4-6.1l3-4.2 5.6 1.3z"/><path id="XMLID_24_" class="st18" d="M180.1 151.3s.3-6.6-5.1-7.6c-5.1-1-10 1-10.6 8.3-.6 7.2 5.8 10.2 11.1 9 0 0-.5-3.2.2-5 .7-2 .5-3.8 1-.6-.1 0 2.6-2.2 3.4-4.1z"/><path id="XMLID_20_" class="st17" d="M175.3 163.3c5.1-.4 5.7 8.2 5.9 10.5 0 1.1.1 1.8 0 2.3.1 0 .3.2.6.3 1.8 1 5 3.3 7.4 4.4 1.4.6 2.9 1.3 3.1 1.3 4.1 1.8 5.2 1.9 4.3 2.9-2 2.4-7.5.4-7.8-.5-.2-.6-3.9-1.6-6.8-2.8-3-1.3-5.9-3.1-6-4.6-.1-2-1-4.5-2.4-8.6-1.5-3.9 1.7-5.2 1.7-5.2z"/><path id="XMLID_18_" class="st13" d="M175.6 162.8c6.6.6 6.8 10.7 6.6 13.2l-7.3 1.3c-.1-2.2-.3-4.9-1.9-9.4-1.7-4.5 2.6-5.1 2.6-5.1z"/><path class="st17" d="M176.6 155.5s.3-2-.7-1.9c-1.1.1-1.9 2.4-.9 2.8.9.4 1.6-.9 1.6-.9zm3-3.3s.5 2.8.4 3.3c-.1.6-.8.8-.8.8l.4-4.1z"/><path class="st18" d="M168.9 144.4s-6.2 2-5.3 14.4c0 0 2.5 3.9 11.9 2.3l-.7-3.7-5.9-13z"/></svg>