<svg id="Layer_1" xmlns="http://www.w3.org/2000/svg" viewBox="0 0 523.4 242"><style>.st0{opacity:.13;fill:#1a98fb}.st1{fill:#87c8f4;stroke:#0388e2;stroke-width:.8394;stroke-miterlimit:10}.st2{fill:#0093ff}.st3{fill:#fff}.st4{opacity:.36}.st5{fill:#1996fc}.st6{fill:#9ed6fd}.st7{fill:#37a8fc}.st8{opacity:7e-2}.st10,.st9{stroke-width:.8394;stroke-miterlimit:10}.st9{fill:#b7e6f9;stroke:#1a98fb}.st10{fill:#fff;stroke:#0093ff;stroke-linecap:round;stroke-linejoin:round}.st11{fill:#74c6f7}.st12{opacity:.74}.st12,.st13,.st14{fill:#74c6f7}.st13{opacity:.43}.st14{opacity:.32}.st15{opacity:.42}.st16{fill:#5fb8ed}.st17{fill:#cfe9f9}.st18{fill:#b5e3f9}.st19{fill:#c2e8fa}.st20{fill:none;stroke:#1996fc;stroke-width:.8394;stroke-miterlimit:10}</style><path class="st0" d="M261.7 241.3L.1 239.6C1.1 108 118.9.3 261.7.3c143.5 0 261.6 108.8 261.6 241H261.7z"/><path class="st0" d="M268.6 242l-214.1-1.4c.8-107.7 97.2-195.9 214.1-195.9 117.5 0 214.1 89 214.1 197.2H268.6z"/><path class="st1" d="M314.6 240.2H213.8c-37.4 0-67.7-30.3-67.7-67.7v-63.2c0-37.4 30.3-67.7 67.7-67.7h100.8c37.4 0 67.7 30.3 67.7 67.7v63.2c0 37.4-30.3 67.7-67.7 67.7z"/><path class="st2" d="M428.2 203.1h-.1c-.7 0-1.4-.3-1.8-.9-.5-.5-.7-1.2-.7-1.9s.3-1.4.9-1.8c.5-.5 1.2-.7 1.9-.7 1.5.1 2.6 1.3 2.5 2.8 0 .7-.3 1.4-.9 1.8-.5.5-1.1.7-1.8.7zm0-4.4c-.4 0-.9.2-1.2.5-.4.3-.6.8-.6 1.2 0 .5.1.9.5 1.3.3.4.8.6 1.2.6.5 0 .9-.1 1.3-.5.4-.3.6-.8.6-1.2 0-1-.8-1.9-1.8-1.9zm-17.8 15h-.1c-.7 0-1.4-.3-1.8-.9-.5-.5-.7-1.2-.7-1.9s.3-1.4.9-1.8c.5-.5 1.2-.7 1.9-.7s1.4.3 1.8.9c.5.5.7 1.2.7 1.9s-.3 1.4-.9 1.8c-.5.5-1.1.7-1.8.7zm0-4.4c-.4 0-.9.2-1.2.5-.4.3-.6.8-.6 1.2 0 .5.1.9.5 1.3s.8.6 1.2.6c.5 0 .9-.1 1.3-.5.4-.3.6-.8.6-1.2 0-.5-.1-.9-.5-1.3-.3-.4-.7-.6-1.3-.6.1 0 0 0 0 0zM396 212h-.1c-.7 0-1.4-.3-1.8-.9-.5-.5-.7-1.2-.7-1.9s.3-1.4.9-1.8c.5-.5 1.2-.7 1.9-.7 1.5.1 2.6 1.3 2.5 2.8 0 .7-.3 1.4-.9 1.8-.5.5-1.1.7-1.8.7zm0-4.4c-.4 0-.9.2-1.2.5-.4.3-.6.8-.6 1.2 0 .5.1.9.5 1.3s.8.6 1.2.6c.5 0 .9-.1 1.3-.5.4-.3.6-.8.6-1.2.1-1-.7-1.9-1.8-1.9.1 0 0 0 0 0z"/><path class="st2" d="M395.6 211.6h.9v30.2h-.9zm-11.9 20.8h-.1c-1.5-.1-2.6-1.3-2.5-2.8.1-1.5 1.3-2.6 2.8-2.5 1.5.1 2.6 1.3 2.5 2.8-.1 1.4-1.3 2.5-2.7 2.5zm0-4.4c-1 0-1.8.8-1.8 1.7 0 1 .7 1.8 1.7 1.9 1 0 1.8-.7 1.9-1.7 0-1.1-.8-1.9-1.8-1.9z"/><path class="st2" d="M383.2 232h.9v10.1h-.9zm55.8.5h-.1c-1.5-.1-2.6-1.3-2.5-2.8.1-1.5 1.3-2.6 2.8-2.5 1.5.1 2.6 1.3 2.5 2.8-.1 1.4-1.2 2.5-2.7 2.5zm0-4.4c-1 0-1.7.8-1.8 1.7 0 1 .7 1.8 1.7 1.9 1 .1 1.8-.7 1.9-1.7.1-1.1-.7-1.9-1.8-1.9.1 0 .1 0 0 0z"/><path class="st2" d="M438.6 232.1h.9v10.1h-.9zm-10.8-29.4h.9v39.1h-.9zm-12.2 39.1h-.9v-10.9l-4.7-4v-13.6h.8v13.2l4.8 4zM46.5 201.7c-.5-.5-.8-1.1-.9-1.8-.1-1.5 1.1-2.7 2.5-2.8.7 0 1.4.2 1.9.7.5.5.8 1.1.9 1.8 0 .7-.2 1.4-.7 1.9-.5.5-1.1.8-1.8.9h-.1c-.7 0-1.3-.2-1.8-.7zm1.7-3.7c-1 0-1.8.9-1.7 1.9 0 .5.2.9.6 1.2.4.3.8.5 1.3.5s.9-.2 1.2-.6c.3-.4.5-.8.5-1.3s-.2-.9-.6-1.2c-.3-.4-.7-.5-1.3-.5.1 0 .1 0 0 0zm16.1 14.3c-.5-.5-.8-1.1-.9-1.8 0-.7.2-1.4.7-1.9.5-.5 1.1-.8 1.8-.9.7 0 1.4.2 1.9.7s.8 1.1.9 1.8c0 .7-.2 1.4-.7 1.9-.5.5-1.1.8-1.8.9h-.1c-.7 0-1.3-.2-1.8-.7zm1.7-3.7c-.5 0-.9.2-1.2.6-.3.4-.5.8-.5 1.3s.2.9.6 1.2c.4.3.8.5 1.3.5s.9-.2 1.2-.6.5-.8.5-1.3-.2-.9-.6-1.2c-.3-.4-.8-.5-1.3-.5.1 0 0 0 0 0zm12.7 2c-.5-.5-.8-1.1-.9-1.8-.1-1.5 1.1-2.7 2.5-2.8.7 0 1.4.2 1.9.7.5.5.8 1.1.9 1.8 0 .7-.2 1.4-.7 1.9-.5.5-1.1.8-1.8.9h-.1c-.7 0-1.3-.2-1.8-.7zm1.7-3.7c-1 0-1.8.9-1.7 1.9 0 .5.2.9.6 1.2.4.3.8.5 1.3.5s.9-.2 1.2-.6.5-.8.5-1.3-.2-.9-.6-1.2c-.3-.4-.8-.5-1.3-.5.1 0 0 0 0 0z"/><path class="st2" d="M80 210.9h.9v30.2H80zm10.2 18.3c-.1-1.5 1.1-2.7 2.5-2.8 1.4 0 2.7 1.1 2.8 2.5.1 1.5-1.1 2.7-2.5 2.8h-.1c-1.5 0-2.7-1.1-2.7-2.5zm2.6-2c-1 0-1.8.9-1.7 1.9 0 1 .9 1.8 1.9 1.7 1 0 1.8-.9 1.7-1.9-.1-.9-.9-1.7-1.9-1.7z"/><path class="st2" d="M92.4 231.3h.9v10.1h-.9zm-57.6-2c-.1-1.5 1.1-2.7 2.5-2.8 1.4-.1 2.7 1.1 2.8 2.5.1 1.5-1.1 2.7-2.5 2.8h-.1c-1.5 0-2.6-1.1-2.7-2.5zm2.6-2c-1 0-1.8.9-1.7 1.9 0 1 .9 1.8 1.9 1.7 1 0 1.8-.9 1.7-1.9-.1-.9-.9-1.7-1.9-1.7z"/><path class="st2" d="M37 231.4h.9v10.1H37zM47.9 202h.9v39.1h-.9zm13 39.1h.9v-11l4.7-3.9v-13.6h-.8v13.2l-4.8 3.9z"/><path class="st3" d="M312.9 236h-97.2c-35.8 0-64.8-29-64.8-64.8v-59.8c0-35.8 29-64.8 64.8-64.8h97.2c35.8 0 64.8 29 64.8 64.8v59.8c0 35.8-29 64.8-64.8 64.8z"/><g class="st4"><path transform="rotate(-1.612 68.979 158.217)" class="st2" d="M64.5 153.8h8.9v8.9h-8.9z"/><path transform="rotate(-127.974 87.002 159.338)" class="st2" d="M84.8 157.1h4.5v4.5h-4.5z"/><path transform="rotate(-173.514 74.754 173.626)" class="st2" d="M72.6 171.4H77v4.4h-4.4z"/></g><g class="st4"><path transform="rotate(-173.514 83.706 188.792)" class="st2" d="M82.1 187.1h3.3v3.3h-3.3z"/></g><g class="st4"><path transform="rotate(-178.388 427.239 158.807)" class="st2" d="M422.8 154.4h8.9v8.9h-8.9z"/><path transform="rotate(-52.026 409.217 159.932)" class="st2" d="M407 157.7h4.5v4.5H407z"/><path transform="rotate(-6.486 421.522 174.263)" class="st2" d="M419.3 172h4.4v4.4h-4.4z"/></g><g class="st4"><path transform="rotate(-6.486 412.567 189.432)" class="st2" d="M410.9 187.7h3.3v3.3h-3.3z"/></g><path class="st5" d="M362.2 76.2v-4.8c0-15.9-12.2-28.8-27.3-28.8h-162c-15.1 0-27.3 12.9-27.3 28.8v4.8h216.6z"/><circle class="st3" cx="175.9" cy="61" r="7.4"/><circle class="st6" cx="197.7" cy="61" r="7.4"/><circle class="st7" cx="221.2" cy="61" r="7.4"/><path class="st8" d="M377.9 42.4h-54.8v75.4c0 4.1 3.5 7.4 7.8 7.4h47V42.4z"/><path class="st9" d="M431.2 114.7h-79.6c-10.9 0-19.7-8.8-19.7-19.7V26.9c0-10.9 8.8-19.7 19.7-19.7h79.6c10.9 0 19.7 8.8 19.7 19.7v68.2c0 10.8-8.8 19.6-19.7 19.6z"/><path class="st8" d="M153.8 83.7c-1.5 0-2.9.3-4.3.8-.1-5-2.3-9.5-5.5-12.3V116h9.8c7.8 0 14.1-7.2 14.1-16.1 0-9-6.3-16.2-14.1-16.2z"/><path class="st10" d="M138.4 74.9c-1.8 0-3.5.3-5.1.9-.3-9.9-7.7-17.8-16.8-17.8-3.8 0-7.3 1.4-10.2 3.7-2-10-10.3-17.5-20.1-17.5-11.4 0-20.6 10-20.6 22.3v.2c-.9-.1-1.9-.2-2.8-.2-11.4 0-20.6 10-20.6 22.3s9.2 22.4 20.6 22.4h75.7c9.3 0 16.8-8.2 16.8-18.2-.1-10-7.6-18.1-16.9-18.1z"/><path class="st5" d="M100.3 145.8h75.6v95.3h-75.6z"/><path class="st11" d="M103.4 148.3h69.5v20h-69.5z"/><path class="st12" d="M103.4 171.4h69.5v20h-69.5z"/><path class="st13" d="M103.4 194.6h69.5v20h-69.5z"/><path class="st14" d="M104.1 217.7h69.5v20h-69.5z"/><g class="st15"><path class="st3" d="M121.6 153.9h45v3.1h-45zm0 7.2h45v3.1h-45z"/><ellipse class="st3" cx="112.7" cy="159.4" rx="2.7" ry="6.1"/><path class="st3" d="M121.2 175.7h45v3.1h-45zm0 7.1h45v3.1h-45z"/><ellipse class="st3" cx="112.4" cy="181.1" rx="2.7" ry="6.1"/><path class="st3" d="M120.5 199.5h45v3.1h-45zm0 7.2h45v3.1h-45z"/><ellipse class="st3" cx="111.6" cy="205" rx="2.7" ry="6.1"/><path class="st3" d="M121.2 221.6h45v3.1h-45zm0 7.2h45v3.1h-45z"/><ellipse class="st3" cx="112.4" cy="227.1" rx="2.7" ry="6.1"/></g><path class="st5" d="M307.2 129.4H197.1c-3 0-5.5-2.4-5.5-5.5v-1c0-3 2.4-5.5 5.5-5.5h110.1c3 0 5.5 2.4 5.5 5.5v1c0 3-2.5 5.5-5.5 5.5z"/><path class="st16" d="M307.2 154H197.1c-3 0-5.5-2.4-5.5-5.5v-1c0-3 2.4-5.5 5.5-5.5h110.1c3 0 5.5 2.4 5.5 5.5v1c0 3-2.5 5.5-5.5 5.5z"/><path class="st17" d="M306.5 178.6H196.4c-3 0-5.5-2.4-5.5-5.5v-1c0-3 2.4-5.5 5.5-5.5h110.1c3 0 5.5 2.4 5.5 5.5v1c0 3-2.4 5.5-5.5 5.5z"/><path class="st3" d="M418.4 104.2h-1c-3 0-5.4-2.4-5.4-5.4V43.4c0-3 2.4-5.4 5.4-5.4h1c3 0 5.4 2.4 5.4 5.4v55.4c0 3-2.5 5.4-5.4 5.4z"/><path class="st2" d="M418.4 104.2h-1c-3 0-5.4-2.4-5.4-5.4V88.5c0-3 2.4-5.4 5.4-5.4h1c3 0 5.4 2.4 5.4 5.4v10.2c0 3.1-2.5 5.5-5.4 5.5z"/><path class="st3" d="M382.7 98.9h-.8c-2.6 0-4.8-2.1-4.8-4.8V37.4c0-2.6 2.1-4.8 4.8-4.8h.8c2.6 0 4.8 2.1 4.8 4.8v56.7c-.1 2.6-2.2 4.8-4.8 4.8zm-18.3-5.5h-.9c-2.8 0-5-2.2-5-5V65.3c0-2.8 2.2-5 5-5h.9c2.8 0 5 2.2 5 5v23.1c0 2.8-2.2 5-5 5zm37.1-27.6h-.8c-2.6 0-4.6-2.1-4.6-4.6V37.3c0-2.6 2.1-4.6 4.6-4.6h.8c2.6 0 4.6 2.1 4.6 4.6v23.8c.1 2.6-2 4.7-4.6 4.7z"/><path class="st2" d="M364.4 104.2h-.9c-2.8 0-5-2.2-5-5V76.1c0-2.8 2.2-5 5-5h.9c2.8 0 5 2.2 5 5v23.1c0 2.7-2.2 5-5 5zm18.3 0h-.8c-2.6 0-4.8-2.1-4.8-4.8V42.7c0-2.6 2.1-4.8 4.8-4.8h.8c2.6 0 4.8 2.1 4.8 4.8v56.7c-.1 2.6-2.2 4.8-4.8 4.8zm18.8 0h-.8c-2.6 0-4.6-2.1-4.6-4.6v-51c0-2.6 2.1-4.6 4.6-4.6h.8c2.6 0 4.6 2.1 4.6 4.6v50.9c.1 2.6-2 4.7-4.6 4.7z"/><ellipse class="st18" cx="345.3" cy="19.2" rx="3.9" ry="3.6"/><ellipse class="st19" cx="360.3" cy="19.2" rx="3.9" ry="3.6"/><ellipse class="st3" cx="375.6" cy="19.2" rx="3.9" ry="3.6"/><ellipse class="st2" cx="438.6" cy="19.2" rx="3.9" ry="3.6"/><path class="st20" d="M64.2 111.4v19.3m30.2-18.5v19.4m16-19.4v26.5m-31.1-28.1v32.7"/></svg>