<svg id="Layer_1" xmlns="http://www.w3.org/2000/svg" viewBox="0 0 488.2 242"><style>.st0{opacity:.13;fill:#1a98fb}.st1{fill:#5fb2d6;stroke:#0093ff;stroke-width:.7831;stroke-miterlimit:10}.st2{fill:#0093ff}.st3{fill:#94d1f2;stroke:#1a98fb;stroke-width:.7831;stroke-miterlimit:10}.st4{fill:#f2f9ff}.st5{opacity:.36}.st6{fill:none;stroke:#1996fc;stroke-width:1.1747;stroke-linecap:round;stroke-linejoin:round;stroke-miterlimit:10}.st7{opacity:.24}.st10,.st11,.st12,.st13,.st8,.st9{fill:none;stroke:#1996fc;stroke-width:1.1747;stroke-linecap:round;stroke-linejoin:round}.st9{stroke-dasharray:4.8191,4.8191}.st10{stroke-dasharray:4.6491,4.6491}.st11{stroke-dasharray:4.3652,4.3652}.st12{stroke-dasharray:4.3179,4.3179}.st13{stroke-dasharray:4.4032,4.4032}.st14{opacity:.56;fill:#1a98fb}.st15{opacity:7e-2}.st16{fill:#fff;stroke:#0093ff;stroke-width:.7831;stroke-linecap:round;stroke-linejoin:round;stroke-miterlimit:10}.st17{fill:#1996fc}.st18{fill:#5fbeff}.st19{fill:#fff}.st20{fill:#1996fc}.st20,.st21,.st22,.st23,.st24,.st25{fill-rule:evenodd;clip-rule:evenodd}.st21{fill:#f4a4b3}.st22{fill:#ea9bad}.st23{fill:#f0f4f7}.st24{fill:#0789e2}.st25{fill:#056499}.st26{fill:none;stroke:#1996fc;stroke-width:.7831;stroke-miterlimit:10}</style><path class="st0" d="M244.1 225.2L0 223.6C.9 100.8 110.8.3 244.1.3 378 .3 488.2 101.8 488.2 225.1H244.1z"/><path class="st0" d="M250.5 225.8l-199.8-1.3C51.5 124 141.4 41.8 250.5 41.8c109.6 0 199.8 83.1 199.8 184H250.5z"/><path class="st1" d="M316 224.1H196.3c-25.4 0-45.9-20.6-45.9-45.9V86c0-25.4 20.6-45.9 45.9-45.9H316c25.4 0 45.9 20.6 45.9 45.9v92.2c0 25.3-20.5 45.9-45.9 45.9z"/><path class="st2" d="M415.4 189.1h-.1c-.7 0-1.3-.3-1.7-.8-.4-.5-.7-1.1-.6-1.8 0-.7.3-1.3.8-1.7.5-.4 1.1-.7 1.8-.6 1.4.1 2.4 1.2 2.4 2.6 0 .7-.3 1.3-.8 1.7-.6.3-1.2.6-1.8.6zm0-4.2c-.4 0-.8.2-1.1.4-.3.3-.5.7-.5 1.2 0 .4.1.9.4 1.2.3.3.7.5 1.2.5s.9-.1 1.2-.4c.3-.3.5-.7.5-1.2 0-.9-.7-1.6-1.7-1.7zm-16.6 14h-.1c-.7 0-1.3-.3-1.7-.8-.4-.5-.7-1.1-.6-1.8 0-.7.3-1.3.8-1.7s1.1-.7 1.8-.6c.7 0 1.3.3 1.7.8.4.5.7 1.1.6 1.8 0 .7-.3 1.3-.8 1.7-.5.4-1 .6-1.7.6zm0-4.1c-.4 0-.8.2-1.1.4-.3.3-.5.7-.5 1.2 0 .4.1.9.4 1.2.3.3.7.5 1.2.5s.9-.1 1.2-.4c.3-.3.5-.7.5-1.2 0-.4-.1-.9-.4-1.2-.3-.3-.7-.5-1.3-.5.1 0 .1 0 0 0zm-13.4 2.6h-.1c-.7 0-1.3-.3-1.7-.8-.4-.5-.7-1.1-.6-1.8 0-.7.3-1.3.8-1.7s1.1-.7 1.8-.6c1.4.1 2.4 1.2 2.4 2.6 0 .7-.3 1.3-.8 1.7-.6.3-1.2.6-1.8.6zm0-4.2c-.4 0-.8.2-1.1.4-.3.3-.5.7-.5 1.2 0 .4.1.9.4 1.2.3.3.7.5 1.2.5s.9-.1 1.2-.4c.3-.3.5-.7.5-1.2 0-.9-.7-1.6-1.7-1.7z"/><path class="st2" d="M385 197h.8v28.2h-.8zm-11.1 19.4h-.1c-1.4-.1-2.4-1.2-2.4-2.6.1-1.4 1.2-2.4 2.6-2.4 1.4.1 2.4 1.2 2.4 2.6-.1 1.3-1.2 2.4-2.5 2.4zm0-4.2c-.9 0-1.6.7-1.7 1.6 0 .9.7 1.7 1.6 1.7.9 0 1.7-.7 1.7-1.6.1-.9-.6-1.6-1.6-1.7z"/><path class="st2" d="M373.5 216h.8v9.5h-.8zm52 .5h-.1c-1.4-.1-2.4-1.2-2.4-2.6.1-1.4 1.2-2.4 2.6-2.4 1.4.1 2.4 1.2 2.4 2.6 0 1.3-1.1 2.4-2.5 2.4zm0-4.2c-.9 0-1.6.7-1.7 1.6 0 .9.7 1.7 1.6 1.7.9.1 1.7-.7 1.7-1.6.2-.9-.6-1.6-1.6-1.7.1 0 .1 0 0 0z"/><path class="st2" d="M425.1 216.1h.8v9.5h-.8zM415 188.7h.8v36.5h-.8zm-11.4 36.4h-.8v-10.2l-4.4-3.7v-12.7h.8v12.4l4.4 3.7zM77.5 187.4c-.5-.4-.8-1.1-.8-1.7-.1-1.4 1-2.5 2.4-2.6.7 0 1.3.2 1.8.6.5.4.8 1.1.8 1.7 0 .7-.2 1.3-.6 1.8-.4.5-1.1.8-1.7.8h-.1c-.8.1-1.3-.2-1.8-.6zm1.6-3.5c-.9 0-1.6.8-1.6 1.7 0 .4.2.9.5 1.2.3.3.7.5 1.2.4.4 0 .9-.2 1.2-.5.3-.3.5-.8.4-1.2 0-.4-.2-.9-.5-1.2-.3-.2-.7-.4-1.2-.4zm15 13.4c-.5-.4-.8-1.1-.8-1.7 0-.7.2-1.3.6-1.8.4-.5 1.1-.8 1.7-.8.7 0 1.3.2 1.8.6.5.4.8 1.1.8 1.7 0 .7-.2 1.3-.6 1.8-.4.5-1.1.8-1.7.8h-.1c-.7 0-1.3-.2-1.7-.6zm1.6-3.5c-.4 0-.9.2-1.2.5-.3.3-.5.8-.4 1.2 0 .4.2.9.5 1.2.3.3.7.5 1.2.4.4 0 .9-.2 1.2-.5s.5-.8.4-1.2c0-.4-.2-.9-.5-1.2-.3-.2-.7-.4-1.2-.4zm11.8 1.9c-.5-.4-.8-1.1-.8-1.7-.1-1.4 1-2.5 2.4-2.6.7 0 1.3.2 1.8.6.5.4.8 1.1.8 1.7 0 .7-.2 1.3-.6 1.8-.4.5-1.1.8-1.7.8h-.1c-.8.1-1.3-.2-1.8-.6zm1.6-3.5c-.9 0-1.6.8-1.6 1.7 0 .4.2.9.5 1.2.3.3.7.5 1.2.4.4 0 .9-.2 1.2-.5s.5-.8.4-1.2c0-.4-.2-.9-.5-1.2-.3-.2-.7-.4-1.2-.4z"/><path class="st2" d="M108.8 196h.8v28.2h-.8zm9.4 17c-.1-1.4 1-2.5 2.4-2.6 1.3 0 2.5 1 2.6 2.4.1 1.4-1 2.5-2.4 2.6h-.1c-1.3 0-2.4-1.1-2.5-2.4zm2.4-1.8c-.9 0-1.6.8-1.6 1.7 0 .9.8 1.6 1.7 1.6.9 0 1.6-.8 1.6-1.7 0-.9-.7-1.6-1.7-1.6.1 0 .1 0 0 0z"/><path class="st2" d="M120.3 215h.8v9.5h-.8zm-53.7-1.9c-.1-1.4 1-2.5 2.4-2.6 1.3-.1 2.5 1 2.6 2.4.1 1.4-1 2.5-2.4 2.6h-.1c-1.4 0-2.5-1.1-2.5-2.4zm2.4-1.8c-.9 0-1.6.8-1.6 1.7 0 .9.8 1.7 1.7 1.6.9 0 1.6-.8 1.6-1.7 0-.9-.8-1.6-1.7-1.6z"/><path class="st2" d="M68.6 215.1h.8v9.5h-.8zm10.2-27.4h.8v36.5h-.8zm12.1 36.4h.8v-10.2l4.4-3.7v-12.7h-.8v12.4l-4.4 3.7z"/><path class="st3" d="M312.6 224.9H192.1c-25.1 0-45.5-20.4-45.5-45.5V89.9c0-25.1 20.4-45.5 45.5-45.5h120.5c25.1 0 45.5 20.4 45.5 45.5v89.5c0 25.1-20.4 45.5-45.5 45.5z"/><path class="st4" d="M308.5 218.9H196.9c-23.3 0-42.1-18.9-42.1-42.1V93.9c0-23.3 18.9-42.1 42.1-42.1h111.6c23.3 0 42.1 18.9 42.1 42.1v82.9c0 23.3-18.9 42.1-42.1 42.1z"/><g class="st5"><path transform="rotate(-1.612 95.37 147.032)" class="st2" d="M91.2 142.9h8.3v8.3h-8.3z"/><path transform="rotate(-127.974 112.183 148.079)" class="st2" d="M110.1 146h4.2v4.2h-4.2z"/><path transform="rotate(-173.514 100.756 161.41)" class="st2" d="M98.7 159.4h4.1v4.1h-4.1z"/></g><g class="st5"><path transform="rotate(-173.514 109.108 175.559)" class="st2" d="M107.6 174h3.1v3.1h-3.1z"/></g><g class="st5"><path transform="rotate(-178.388 398.292 142.052)" class="st2" d="M394.1 137.9h8.3v8.3h-8.3z"/><path transform="rotate(-52.026 381.478 143.101)" class="st2" d="M379.4 141h4.2v4.2h-4.2z"/><path transform="rotate(-6.486 392.958 156.472)" class="st2" d="M390.9 154.4h4.1v4.1h-4.1z"/></g><g class="st5"><path transform="rotate(-6.486 384.604 170.622)" class="st2" d="M383 169h3.1v3.1H383z"/></g><path class="st6" d="M184.6 74.6v122.2h141"/><g class="st7"><path class="st8" d="M190.7 166l1.5-1.8"/><path class="st9" d="M195.2 160.4l16.6-20.7"/><path class="st8" d="M213.3 137.9l1.5-1.9 1.4 1.9"/><path class="st10" d="M219.1 141.6l15.7 20.1"/><path class="st8" d="M236.2 163.5l1.5 1.9 1.2-2"/><path class="st11" d="M241.2 159.7l26.4-42.7"/><path class="st8" d="M268.7 115.1l1.3-2 1.5 1.8"/><path class="st12" d="M274.5 118.1l15.9 17.5"/><path class="st8" d="M291.9 137.2l1.6 1.8 1.3-2"/><path class="st13" d="M297.2 133.3l8.4-12.8"/><path class="st8" d="M306.9 118.6l1.2-1.9"/></g><path class="st14" d="M205.4 80.5v110.4m21.9-110.4v110.4m23.1-110.4v110.4m21.9-110.4v110.4m22-110.8v110.4m21.9-110.4v110.4"/><path class="st15" d="M350.9 46.7c-2.5-1.4-5.3-2.2-8.4-2.2-10.1 0-18.4 8.9-18.4 19.9v.2c-.8-.1-1.7-.2-2.5-.2-10.2 0-18.4 8.9-18.4 19.9 0 11 8.2 19.9 18.4 19.9h29.2V46.7z"/><path class="st16" d="M398.9 62.8c-1.6 0-3.1.3-4.6.8-.2-8.7-6.8-15.7-15-15.7-3.4 0-6.5 1.2-9 3.3-1.8-8.9-9.1-15.6-17.9-15.6-10.1 0-18.4 8.9-18.4 19.9v.2c-.8-.1-1.7-.2-2.5-.2-10.2 0-18.4 8.9-18.4 19.9 0 11 8.2 19.9 18.4 19.9h67.4c8.3 0 15-7.3 15-16.2-.1-9.1-6.8-16.3-15-16.3z"/><path d="M175.8 73h-29.3v11.1h29.3c2.7 0 4.8-2.2 4.8-4.8v-1.5c0-2.7-2.2-4.8-4.8-4.8zm-8.6 20.3h-20.3l-.4 11.1h20.7c2.7 0 4.8-2.2 4.8-4.8v-1.5c0-2.6-2.2-4.8-4.8-4.8zm-9.4 20.4h-11.3v11.1h11.3c2.7 0 4.8-2.2 4.8-4.8v-1.5c0-2.6-2.2-4.8-4.8-4.8z" class="st15"/><path class="st17" d="M167.6 80.2H65.7c-3.1 0-5.5-2.5-5.5-5.5 0-3.1 2.5-5.5 5.5-5.5h101.9c3.1 0 5.5 2.5 5.5 5.5.1 3-2.4 5.5-5.5 5.5z"/><path class="st18" d="M159 100.6H57.1c-3.1 0-5.5-2.5-5.5-5.5 0-3.1 2.5-5.5 5.5-5.5H159c3.1 0 5.5 2.5 5.5 5.5s-2.4 5.5-5.5 5.5z"/><path class="st19" d="M149.6 120.9H47.7c-3.1 0-5.5-2.5-5.5-5.5 0-3.1 2.5-5.5 5.5-5.5h101.9c3.1 0 5.5 2.5 5.5 5.5 0 3.1-2.4 5.5-5.5 5.5z"/><path class="st0" d="M150.6 236.5c0 2.4-12.1 5.5-21.3 5.5s-13.3-.9-13.3-3.3 10.6-5.3 19.8-5.3 14.8.8 14.8 3.1z"/><path class="st20" d="M134.1 235.3s-.5 2.1.4 2.5c.9.4 11.7-2.9 9.1-4.4-3.2-1.8-9.5 1.9-9.5 1.9zm-14.2-1.1s-.5 2.1.4 2.5c.9.4 11.7-2.9 9.1-4.4-3.2-1.8-9.5 1.9-9.5 1.9z"/><path class="st21" d="M135.6 167.7l8-4.7c.7-.4 1.1-1 1.2-1.8.1-.6.4-1.2 1.2-1.6 1.4-.7 3.7-1 3.6-.6-.1.2-.6.7-1.1 1-.3.2-.3.6 0 .9.4.3.8.9.6 1.6-.4 1.2-1.1 2.7-2.7 3.1-.3.1-.6.2-.9.4l-10.1 7.2.2-5.5z"/><path class="st22" d="M130.1 163.3h-5.4v-3.8l5.7.4z"/><path id="XMLID_80_" class="st23" d="M118.3 189c.2 0 .9 6.6 1.2 7.3 1.2 2.9 3.2 5.4 4.1 8.5 1.1 4.1.2 8.2-.4 12.4-.4 2.9-.9 5.7-1.6 8.5-.3 1.4-.6 2.8-1 4.1-.1.5-1.3 3.6-1 3.8.8.7 2 .9 3.1.8.9 0 3 0 3.7-.7 1.1-1.2.8-3.6 1.1-5.1.3-2.4.8-4.7 1.4-7.1 1.1-4.4 2.7-8.7 3.9-13.1 1.1-3.9.3-8.6-1.3-12.2l-3.3-5.2c-.2.2-9.8-2-9.9-2z"/><path id="XMLID_78_" class="st23" d="M136.8 191.9c.5.5.7 2 1 2.6.7 1.8 1.2 3.7 1.8 5.5 1.9 5.8 2.1 11.9 1.7 18-.2 3-.7 5.9-.9 8.9-.1 1.1.3 8.1-.4 8.4-1.2.5-5.9 2.2-6.3.1-.1-.5 0-1 .1-1.4.7-3.7.8-7.5.5-11.2-.4-4.2-.2-7.9-.5-12.1-.4-5-4.3-9.4-7.5-13.2-2.5-3-3.2-7.2-1.7-10.8 2-4.7 12.2 5.2 12.2 5.2z"/><path id="XMLID_48_" class="st24" d="M124.4 161.6c6.7.7 6.8 10.9 6.6 13.5l-7.4 1.2c-.1-2.3-.3-5-1.8-9.6-1.8-4.5 2.6-5.1 2.6-5.1z"/><path id="XMLID_46_" class="st20" d="M121.2 165.5c.6-1.4 1.7-3.9 6-4 4.4-.1 7.1 1.4 8.2 3.7 1.3 2.6 2.1 1.8 0 9.8s.4 13.5 2.4 16.7c2.1 3.1 0 2.8 0 2.8s-14.4 6.2-19.8-2.5c0 0 1.4-11.3 1.4-14.2 0-2.9.7-9.9 1.8-12.3z"/><path id="XMLID_44_" class="st21" d="M135.1 151.6s.9 8.1-4.2 9.1c-5.3 1-4.5-6.2-4.5-6.2l3.1-4.2 5.6 1.3z"/><path id="XMLID_42_" class="st25" d="M135.5 150.8s.3-6.7-5.1-7.7c-5.2-1-10.2 1-10.8 8.5-.6 7.3 5.9 10.4 11.3 9.1 0 0-.5-3.2.2-5.1.7-2.1.5-3.9 1-.6-.1-.1 2.6-2.3 3.4-4.2z"/><path id="XMLID_40_" class="st21" d="M130.6 163c5.2-.4 5.8 8.4 6 10.7 0 1.1.1 1.8 0 2.3.1 0 .3.2.6.3 1.8 1 5.1 3.4 7.6 4.5 1.4.6 3 1.3 3.2 1.4 4.1 1.8 5.3 2 4.4 3-2.1 2.4-7.6.4-8-.5-.2-.6-3.9-1.6-6.9-2.9-3.1-1.3-6-3.1-6.2-4.7-.1-2.1-1-4.6-2.5-8.7s1.8-5.4 1.8-5.4z"/><path id="XMLID_36_" class="st24" d="M131 162.4c6.7.6 6.9 10.9 6.7 13.4l-7.4 1.3c-.1-2.3-.3-5-1.9-9.6-1.8-4.4 2.6-5.1 2.6-5.1z"/><path class="st21" d="M132 155s.3-2.1-.7-2-1.9 2.4-1 2.9c.9.4 1.7-.9 1.7-.9zm3-3.3s.5 2.8.4 3.4c-.1.6-.9.8-.9.8l.5-4.2z"/><path class="st25" d="M124.1 143.7s-6.3 2.1-5.4 14.7c0 0 2.6 4 12.1 2.3l-.8-3.7-5.9-13.3z"/><circle class="st2" cx="191.3" cy="165.7" r="3"/><circle class="st2" cx="214.4" cy="136.9" r="3"/><circle class="st2" cx="237.7" cy="164.5" r="3"/><circle class="st2" cx="269.8" cy="114.6" r="3"/><circle class="st2" cx="292.7" cy="138.5" r="3"/><path class="st26" d="M383 95.6v19.2m14.9-20v26.7m-29-26.3v30.6"/></svg>