<svg id="Layer_1" xmlns="http://www.w3.org/2000/svg" viewBox="0 0 523.5 242"><style>.st0{opacity:.13;fill:#1a98fb}.st1{opacity:.52}.st1,.st2,.st3{fill:#54b5f7;stroke:#1996fc;stroke-width:.84;stroke-miterlimit:10}.st3{fill:#50bcf9;stroke:#0093ff;stroke-linecap:round;stroke-linejoin:round}.st4{fill:#0093ff}.st5{opacity:.36}.st6{fill:#1996fc}.st10,.st7,.st8,.st9{fill:#74c6f7}.st8{opacity:.74}.st9{opacity:.43}.st10{opacity:.32}.st11{opacity:.42}.st12{fill:#fff}.st13{opacity:.7;fill:#1996fc;stroke:#057cc6;stroke-miterlimit:10}.st13,.st14,.st15{stroke-width:.84}.st14{stroke-miterlimit:10;fill:#1996fc;stroke:#087bc1}.st15{fill:#46c1f7;stroke:#0980c9}.st15,.st16,.st17,.st18{stroke-miterlimit:10}.st16{stroke-linecap:round;stroke-linejoin:round;fill:#fff;stroke:#0093ff;stroke-width:.84}.st17{fill:none;stroke:#1996fc;stroke-width:1.6801}.st18{fill:#2aacf4;stroke:#1a98fb;stroke-width:.42}</style><path class="st0" d="M261.7 241.3L-.1 239.6C.9 107.9 118.8.1 261.7.1 405.3.1 523.5 109 523.5 241.3H261.7z"/><path class="st0" d="M268.6 242l-214.3-1.4c.8-107.8 97.3-196 214.3-196 117.6 0 214.3 89.1 214.3 197.4H268.6z"/><path class="st1" d="M250.2 187.6c-4.4 0-8.1-3.7-8.1-8.3 0-4.6 3.6-8.3 8.1-8.3m73.9 16c4.4 0 8.1-3.7 8.1-8.3 0-4.6-3.6-8.3-8.1-8.3"/><path class="st2" d="M308.2 147.9c-1.1-.8-1.4-2.4-.6-3.5l13.5-19.3c.8-1.1 2.4-1.4 3.5-.6 1.1.8 1.4 2.4.6 3.5l-13.5 19.3c-.8 1.1-2.4 1.4-3.5.6zm-39.9.7c1.1-.8 1.4-2.4.6-3.5l-13.5-19.3c-.8-1.1-2.4-1.4-3.5-.6-1.1.8-1.4 2.4-.6 3.5l13.5 19.3c.8 1.1 2.4 1.4 3.5.6z"/><path class="st3" d="M273.3 196.8h27.3v17.4h-27.3z"/><path class="st4" d="M422.1 196h-.1c-.8 0-1.5-.4-2.1-1-.5-.6-.8-1.4-.8-2.2 0-.8.4-1.5 1-2.1.6-.5 1.4-.8 2.2-.8 1.7.1 3 1.5 2.9 3.1 0 .8-.4 1.5-1 2.1-.6.6-1.3.9-2.1.9zm0-5.1c-.5 0-1 .2-1.4.5-.4.4-.6.9-.7 1.4 0 .5.2 1.1.5 1.5.4.4.9.6 1.4.7.6 0 1.1-.2 1.5-.5.4-.4.6-.9.7-1.4.1-1.2-.8-2.1-2-2.2.1 0 0 0 0 0zM402 208h-.1c-.8 0-1.5-.4-2.1-1-.5-.6-.8-1.4-.8-2.2 0-.8.4-1.5 1-2.1s1.3-.8 2.2-.8c.8 0 1.5.4 2.1 1 .5.6.8 1.4.8 2.2 0 .8-.4 1.5-1 2.1-.7.5-1.4.8-2.1.8zm0-5.1c-.5 0-1 .2-1.4.5-.4.4-.6.9-.7 1.4 0 .5.2 1.1.5 1.5.4.4.9.6 1.4.7.6 0 1.1-.2 1.5-.5.4-.4.6-.9.7-1.4 0-.5-.2-1.1-.5-1.5-.4-.4-.9-.6-1.5-.7zm-16.4 3.2h-.1c-.8 0-1.5-.4-2.1-1-.5-.6-.8-1.4-.8-2.2 0-.8.4-1.5 1-2.1.6-.5 1.3-.8 2.2-.8 1.7.1 3 1.5 2.9 3.1 0 .8-.4 1.5-1 2.1-.6.6-1.3.9-2.1.9zm0-5.1c-.5 0-1 .2-1.4.5-.4.4-.6.9-.7 1.4 0 .5.2 1.1.5 1.5.4.4.9.6 1.4.7.6 0 1.1-.2 1.5-.5.4-.4.6-.9.7-1.4.1-1.2-.8-2.1-2-2.2.1 0 0 0 0 0z"/><path class="st4" d="M385.1 205.6h1v34.3h-1zm-13.5 23.6h-.1c-1.7-.1-3-1.5-2.9-3.1.1-1.7 1.5-2.9 3.1-2.9 1.7.1 3 1.5 2.9 3.1-.1 1.6-1.4 2.9-3 2.9zm0-5.1c-1.1 0-2 .9-2 2s.8 2.1 1.9 2.1c1.1.1 2.1-.8 2.1-1.9.1-1.2-.8-2.1-2-2.2z"/><path class="st4" d="M371.1 228.7h1v11.5h-1zm63.4.6h-.1c-1.7-.1-3-1.5-2.9-3.1.1-1.7 1.5-3 3.1-2.9 1.7.1 3 1.5 2.9 3.1-.1 1.6-1.4 2.9-3 2.9zm0-5c-1.1 0-2 .9-2 2s.8 2.1 1.9 2.1c1.1.1 2.1-.8 2.1-1.9 0-1.2-.8-2.2-2-2.2z"/><path class="st4" d="M434 228.8h1v11.5h-1zm-12.4-33.3h1v44.4h-1zm-13.8 44.4h-1v-12.5l-5.3-4.5v-15.4h.9v15l5.4 4.5zM94.7 195.4c-.6-.5-.9-1.3-1-2.1-.1-1.7 1.2-3.1 2.9-3.1.8 0 1.6.2 2.2.8.6.5.9 1.3 1 2.1 0 .8-.2 1.6-.8 2.2-.5.6-1.3.9-2.1 1h-.1c-.8-.1-1.6-.4-2.1-.9zm1.9-4.2c-1.1 0-2 1-1.9 2.1 0 .5.3 1 .7 1.4.4.4.9.6 1.5.5.5 0 1-.3 1.4-.7.4-.4.6-.9.5-1.5 0-.5-.3-1-.7-1.4-.4-.2-.9-.4-1.5-.4.1 0 .1 0 0 0zm18.3 16.3c-.6-.5-.9-1.3-1-2.1 0-.8.2-1.6.8-2.2.5-.6 1.3-.9 2.1-1 .8 0 1.6.2 2.2.8.6.5.9 1.3 1 2.1 0 .8-.2 1.6-.8 2.2-.5.6-1.3.9-2.1 1h-.1c-.9 0-1.6-.3-2.1-.8zm1.9-4.3c-.5 0-1 .3-1.4.7s-.6.9-.5 1.5c0 .5.3 1 .7 1.4.4.4.9.6 1.5.5.5 0 1-.3 1.4-.7.4-.4.6-.9.5-1.5 0-.5-.3-1-.7-1.4-.4-.3-.9-.5-1.5-.5.1 0 0 0 0 0zm14.4 2.3c-.6-.5-.9-1.3-1-2.1-.1-1.7 1.2-3.1 2.9-3.1.8 0 1.6.2 2.2.8.6.5.9 1.3 1 2.1 0 .8-.2 1.6-.8 2.2-.5.6-1.3.9-2.1 1h-.1c-.8-.1-1.5-.4-2.1-.9zm1.9-4.2c-1.1 0-2 1-1.9 2.1 0 .5.3 1 .7 1.4.4.4.9.6 1.5.5.5 0 1-.3 1.4-.7.4-.4.6-.9.5-1.5 0-.5-.3-1-.7-1.4-.4-.2-.9-.4-1.5-.4.1 0 .1 0 0 0z"/><path class="st4" d="M132.7 205.8h1v34.3h-1zm11.6 20.8c-.1-1.7 1.2-3.1 2.9-3.1 1.6-.1 3.1 1.2 3.1 2.9.1 1.7-1.2 3.1-2.9 3.1h-.1c-1.6 0-3-1.3-3-2.9zm2.9-2.2c-1.1 0-2 1-1.9 2.1 0 1.1 1 2 2.1 1.9 1.1 0 2-1 1.9-2.1 0-1-1-1.9-2.1-1.9z"/><path class="st4" d="M146.8 229h1v11.5h-1zm-65.4-2.3c-.1-1.7 1.2-3.1 2.9-3.1 1.6-.1 3.1 1.2 3.1 2.9.1 1.7-1.2 3.1-2.9 3.1h-.1c-1.6 0-3-1.3-3-2.9zm2.9-2.2c-1.1 0-2 1-1.9 2.1 0 1.1 1 2 2.1 1.9 1.1 0 2-1 1.9-2.1 0-1-.9-1.9-2.1-1.9.1 0 0 0 0 0z"/><path class="st4" d="M83.9 229.1h1v11.5h-1zm12.3-33.4h1v44.4h-1zm14.8 44.4h1v-12.4l5.4-4.5v-15.4h-1v15l-5.4 4.4z"/><g class="st5"><path transform="rotate(-1.612 116.181 152.209)" class="st4" d="M111.1 147.2h10.1v10.1h-10.1z"/><path transform="rotate(-127.974 136.645 153.483)" class="st4" d="M134.1 151h5.1v5.1h-5.1z"/><path transform="rotate(-173.514 122.738 169.707)" class="st4" d="M120.2 167.2h5v5h-5z"/></g><g class="st5"><path transform="rotate(-173.514 132.903 186.929)" class="st4" d="M131 185.1h3.7v3.7H131z"/></g><g class="st5"><path transform="rotate(-178.388 373.83 170.46)" class="st4" d="M368.8 165.4h10.1v10.1h-10.1z"/><path transform="rotate(-52.026 353.366 171.736)" class="st4" d="M350.8 169.2h5.1v5.1h-5.1z"/><path transform="rotate(-6.486 367.32 188.003)" class="st4" d="M364.8 185.5h5v5h-5z"/></g><g class="st5"><path transform="rotate(-6.486 357.154 205.227)" class="st4" d="M355.2 203.3h3.7v3.7h-3.7z"/></g><path class="st6" d="M161.7 160.4h63.4v79.9h-63.4z"/><path class="st7" d="M164.4 162.5h58.3v16.8h-58.3z"/><path class="st8" d="M164.4 181.9h58.3v16.8h-58.3z"/><path class="st9" d="M164.4 201.2h58.3V218h-58.3z"/><path class="st10" d="M164.9 220.6h58.3v16.8h-58.3z"/><g class="st11"><path class="st12" d="M179.5 167.2h37.7v2.6h-37.7zm0 6h37.7v2.6h-37.7z"/><ellipse class="st12" cx="172.1" cy="171.8" rx="2.2" ry="5.1"/><path class="st12" d="M179.2 185.4h37.7v2.6h-37.7zm0 6h37.7v2.6h-37.7z"/><ellipse class="st12" cx="171.8" cy="190" rx="2.2" ry="5.1"/><path class="st12" d="M178.6 205.4h37.7v2.6h-37.7zm0 6h37.7v2.6h-37.7z"/><ellipse class="st12" cx="171.2" cy="210" rx="2.2" ry="5.1"/><path class="st12" d="M179.2 223.9h37.7v2.6h-37.7zm0 6h37.7v2.6h-37.7z"/><ellipse class="st12" cx="171.8" cy="228.5" rx="2.2" ry="5.1"/></g><path class="st13" d="M172 72.3l-.1-.1c-.3-.2-3.2-.2-3.2-.4-.1-1.7-.5-3-1.3-4.5l2-1.7c.3-.3.4-1 .2-1.3l-2.9-3.4s-.4-.1-1 .3l-2 1.7c-1.4-1.1-2.6-1.8-4.5-2.3l.3-3.3c.5-1-2-.9-2.5-1-.9-.1-1.8-.1-2.7-.3-.4-.1-.9.5-1 .9l-.2 3c-1.7.1-3 .5-4.5 1.1l-2-2.4c-.3-.3-1-.4-1.3-.2l-3.2 2.6c-.3.3-.4 1-.2 1.3l1.7 2.2c-1.1 1.2-1.8 2.6-2.4 4.1l-3.1-.4c-.4-.1-.9.5-1 .9-.1.7-.1 1.5-.2 2.2-.1.6-.5 2.5.1 2.8.4.2 3.9.3 3.9.6.2 1.4.7 3 1.4 4.7l-2 1.7c-.3.3-.4 1-.2 1.3.5.7 1.1 1.3 1.6 2 .6.8 1.4 2.2 2.5 1.6.7-.3 1.4-1.1 2-1.6 1.2 1.1 2.6 1.8 4.1 2.4l-.4 3.1c-.1.3 0 .6.2.6.3.1.5.3.7.2l4.3.4c.3.1.6 0 .6-.2.3-.3.3-.5.2-.7l.4-3.1c1.7-.1 3.4-.6 4.9-1.2l1.6 1.9c.3.3 1 .4 1.3.2l3.4-2.7c.3-.3.4-1 .2-1.3l-1.7-2c1.1-1.4 1.8-2.6 2.3-4.5l2.6.3c.3.1.6 0 .6-.2.1-.3.3-.5.2-.7.1-.7.1-1.5.2-2.2.1-.2.5-1.9.1-2.4zm-11.9 8.4c-3.8 3-9.1 2.3-12.2-1.3-3-3.8-2.3-9.1 1.3-12.2 3.8-3 9.1-2.3 12.2 1.3 3.2 3.9 2.4 9.2-1.3 12.2z"/><path class="st14" d="M221.9 116.7c0-.1-.1-.1-.1-.2-.4-.4-5.6-2.1-5.5-2.4.7-3 .7-5.6 0-8.5l4.5-1.9c.7-.4 1.1-1.5 1.1-2.2l-3.3-7.4s-.7-.4-1.9 0l-4.5 1.9c-1.9-2.6-3.7-4.5-6.7-6.3l2.2-5.6c1.4-1.4-3.1-2.7-3.9-3-1.5-.6-3.1-1.1-4.6-1.8-.7-.4-1.9.4-2.2 1.1l-1.9 5.2c-3-.7-5.6-.7-8.5-.4l-2.2-5.2c-.4-.7-1.5-1.1-2.2-1.1l-7.1 3c-.7.4-1.1 1.5-1.1 2.2l1.9 4.8c-2.6 1.5-4.5 3.7-6.3 5.9l-5.2-2.2c-.7-.4-1.9.4-2.2 1.1-.5 1.2-1 2.5-1.5 3.7-.4 1.1-2.2 4.1-1.3 5 .6.6 6.6 2.6 6.6 3.1-.4 2.6-.4 5.6 0 8.9l-4.5 1.9c-.7.4-1.1 1.5-1.1 2.2.6 1.5 1.2 2.9 1.8 4.4.7 1.7 1.3 4.5 3.6 4.1 1.4-.2 2.9-1.2 4.3-1.8 1.5 2.6 3.7 4.5 5.9 6.3l-2.2 5.2c-.4.4-.4 1.1 0 1.1.4.4.7.7 1.1.7l7.4 3c.4.4 1.1.4 1.1 0 .7-.4.7-.7.7-1.1l2.2-5.2c3 .7 6.3.7 9.3.4l1.9 4.1c.4.7 1.5 1.1 2.2 1.1l7.4-3c.7-.4 1.1-1.5 1.1-2.2l-1.9-4.5c2.6-1.9 4.5-3.7 6.3-6.7l4.5 1.9c.4.4 1.1.4 1.1 0 .4-.4.7-.7.7-1.1.5-1.2 1-2.5 1.5-3.7.4-.9 2-3.7 1.5-4.8zm-25.3 8.6c-8.2 3.3-17.1-.7-20.8-8.5-3.3-8.2.7-17.1 8.5-20.8 8.2-3.3 17.1.7 20.8 8.5 3.8 8.6-.3 17.5-8.5 20.8z"/><path class="st15" d="M347.2 135.8l7.7-15.2c2.6-5.1-.9-11.2-6.2-11.2h-27.1c-5.7 0-10.2-4.9-10.2-11V73.1c0-6.1 4.6-11 10.2-11h71.9c5.7 0 10.2 4.9 10.2 11v27.6c0 6.1-4.6 11-10.2 11H380c-4.5 0-8.9 1.8-12.3 5l-20.5 19.1z"/><path class="st12" d="M386.3 80.1h-59.7c-1.3 0-2.3-1-2.3-2.3 0-1.3 1-2.3 2.3-2.3h59.7c1.3 0 2.3 1 2.3 2.3 0 1.3-1 2.3-2.3 2.3zm4.2 11.9h-59.7c-1.3 0-2.3-1-2.3-2.3 0-1.3 1-2.3 2.3-2.3h59.7c1.3 0 2.3 1 2.3 2.3 0 1.2-1 2.3-2.3 2.3z"/><path class="st16" d="M321.6 202.2h-68.8c-1.4 0-2.5-1.1-2.5-2.5v-26.8c0-20.4 16.5-36.9 36.9-36.9s36.9 16.5 36.9 36.9v26.8c0 1.4-1.1 2.5-2.5 2.5zm-50.1 5.6h31.1c16.8 0 30.3 13.6 30.3 30.3 0 2.2-1.8 3.9-3.9 3.9h-84c-2.2 0-3.9-1.8-3.9-3.9.1-16.7 13.7-30.3 30.4-30.3z"/><path class="st18" d="M304 190.9h-33c-1.6 0-2.9-1.3-2.9-2.9 0-1.6 1.3-2.9 2.9-2.9h33c1.6 0 2.9 1.3 2.9 2.9 0 1.6-1.3 2.9-2.9 2.9z"/><circle class="st4" cx="278.1" cy="166.3" r="3.2"/><circle class="st4" cx="296.6" cy="166.1" r="3.2"/></svg>