<svg id="Layer_1" xmlns="http://www.w3.org/2000/svg" width="18" height="20" viewBox="0 0 18 20"><style>.st0{fill:#0093ff}</style><path class="st0" d="M17.6 3.3c-.3-.3-.6-.4-1-.4h-1.4V1.8c0-.5-.2-.9-.5-1.3-.3-.3-.7-.5-1.2-.5h-.7c-.5 0-.9.2-1.2.5-.3.3-.5.8-.5 1.3v1.1H6.9V1.8c0-.5-.2-.9-.5-1.3C6.1.2 5.7 0 5.2 0h-.7C4 0 3.6.2 3.3.5c-.4.4-.5.8-.5 1.3v1.1H1.4c-.4 0-.7.1-1 .4-.3.3-.4.6-.4 1v14.3c0 .4.1.7.4 1 .3.3.6.4 1 .4h15.2c.4 0 .7-.1 1-.4.3-.3.4-.6.4-1V4.3c0-.4-.1-.7-.4-1zm-5.1-1.5c0-.1 0-.2.1-.3.1-.1.1-.1.2-.1h.7c.1 0 .2 0 .2.1.1.1.1.2.1.3V5c0 .1 0 .2-.1.3-.1.1-.1.1-.2.1h-.7c-.1 0-.2 0-.2-.1-.1-.1-.1-.2-.1-.3V1.8zm-8.3 0c0-.1 0-.2.1-.3.1-.1.1-.1.2-.1h.7c.1 0 .2 0 .2.1.1.1.1.2.1.3V5c0 .1 0 .2-.1.3 0 0-.1.1-.2.1h-.7c-.1 0-.2 0-.2-.1-.1-.1-.1-.2-.1-.3V1.8zm11.4 15.8H2.4V7.1h13.2v10.5z"/></svg>