<svg id="Layer_1" xmlns="http://www.w3.org/2000/svg" width="18" height="20" viewBox="0 0 18 20"><style>.st0{fill:#0093ff}</style><path class="st0" d="M16.4 2.3H9.7V.7C9.7.3 9.4 0 9 0c-.4 0-.7.3-.7.7v1.5H1.6C.7 2.3 0 2.9 0 3.8v9.7c0 .8.7 1.5 1.6 1.5H5l-2 3.5c-.2.4-.1.8.3 1 .1.1.2.1.3.1.3 0 .5-.1.7-.4L6.6 15h1.6v4.3c.1.4.4.7.8.7s.7-.3.7-.7V15h1.6l2.4 4.2c.1.2.4.4.7.4.1 0 .2 0 .3-.1.4-.2.5-.6.3-1L13 15h3.4c.9 0 1.6-.7 1.6-1.5V3.8c0-.9-.7-1.5-1.6-1.5zM15 11.6c0 .6-.5 1-1 1H4c-.6 0-1-.5-1-1V5.9c0-.6.5-1 1-1h10c.6 0 1 .5 1 1v5.7z"/></svg>