<svg id="Layer_1" xmlns="http://www.w3.org/2000/svg" xmlns:xlink="http://www.w3.org/1999/xlink" viewBox="0 0 115 44"><style>.st0{clip-path:url(#SVGID_2_)}.st1{clip-path:url(#SVGID_4_);fill:#b5b9bf}.st2{clip-path:url(#SVGID_6_)}.st3{clip-path:url(#SVGID_8_);fill:#b5b9bf}.st4{clip-path:url(#SVGID_10_)}.st5{clip-path:url(#SVGID_12_);fill:#b5b9bf}.st6{clip-path:url(#SVGID_14_)}.st7{clip-path:url(#SVGID_16_);fill:#b5b9bf}.st8{clip-path:url(#SVGID_18_)}.st9{clip-path:url(#SVGID_20_);fill:#b5b9bf}.st10{clip-path:url(#SVGID_22_)}.st11{clip-path:url(#SVGID_24_);fill:#6dcef9}.st12{clip-path:url(#SVGID_26_)}.st13{clip-path:url(#SVGID_28_);fill:#6dcef9}</style><defs><path id="SVGID_1_" d="M41.6 10.2c.4 0 .5.1.5.5v25c0 .5-.2.7-.6.7-2.9.5-4.9.6-7.3.6-6.9 0-8.4-2-8.4-9.8 0-7.8 1.5-9.9 7.8-9.9 1.8 0 3.3.1 4.4.2v-6.9c0-.4.2-.5.5-.5h3.1zm-7.4 10.9c-3.8 0-4.3 1.2-4.3 6.2 0 4.8.4 6.2 4.2 6.2 1.1 0 2.6-.1 3.8-.3V21.1h-3.7z"/></defs><clipPath id="SVGID_2_"><use xlink:href="#SVGID_1_" overflow="visible"/></clipPath><g class="st0"><defs><path id="SVGID_3_" d="M0-.5h116.1v45.9H0z"/></defs><clipPath id="SVGID_4_"><use xlink:href="#SVGID_3_" overflow="visible"/></clipPath><path class="st1" d="M20.7 5.1h26.4v37.1H20.7z"/></g><defs><path id="SVGID_5_" d="M56.4 17.8c.3.1.5.2.5.6v2.1c0 .4-.2.6-.6.5h-3.1c-2.1 0-2.7.4-2.7 1.9v13.4c0 .4-.2.5-.5.5h-3c-.3 0-.5-.2-.5-.5V21.9c0-4.2 3.3-4.5 5.8-4.5.8.1 3.2.2 4.1.4"/></defs><clipPath id="SVGID_6_"><use xlink:href="#SVGID_5_" overflow="visible"/></clipPath><g class="st2"><defs><path id="SVGID_7_" d="M0-.5h116.1v45.9H0z"/></defs><clipPath id="SVGID_8_"><use xlink:href="#SVGID_7_" overflow="visible"/></clipPath><path class="st3" d="M41.5 12.4H62v29.7H41.5z"/></g><defs><path id="SVGID_9_" d="M73.8 23.2v12.2c0 .5-.1.8-.7 1-1.8.5-4.8.8-7.7.8-4.8 0-7.2-.8-7.2-5.8 0-4.4 2.3-5.6 6.5-5.6h5V24c0-2-1.1-2.8-3.9-2.8h-5.6c-.4 0-.5-.1-.5-.5v-2.1c0-.4.1-.5.5-.6 2.1-.4 3.9-.5 5.6-.5 6 0 8 1.9 8 5.7zm-8.9 5.6c-1.8 0-2.6.6-2.6 2.3 0 2 .9 2.5 3.5 2.5.9 0 2.7-.1 3.9-.4v-4.4h-4.8z"/></defs><clipPath id="SVGID_10_"><use xlink:href="#SVGID_9_" overflow="visible"/></clipPath><g class="st4"><defs><path id="SVGID_11_" d="M0-.5h116.1v45.9H0z"/></defs><clipPath id="SVGID_12_"><use xlink:href="#SVGID_11_" overflow="visible"/></clipPath><path class="st5" d="M53.2 12.4h25.6v29.9H53.2z"/></g><defs><path id="SVGID_13_" d="M93.7 17.6c.3 0 .5.2.5.5V36c0 .5-.2.5-.5.6-2.5.5-5.6.6-7.6.6-6.3 0-8.1-1-8.1-8.3V18.2c0-.4.2-.5.6-.5h3.1c.3 0 .5.2.5.5v9.9c0 5.2.8 5.4 4 5.4H90V18.2c0-.4.2-.5.5-.5h3.2z"/></defs><clipPath id="SVGID_14_"><use xlink:href="#SVGID_13_" overflow="visible"/></clipPath><g class="st6"><defs><path id="SVGID_15_" d="M0-.5h116.1v45.9H0z"/></defs><clipPath id="SVGID_16_"><use xlink:href="#SVGID_15_" overflow="visible"/></clipPath><path class="st7" d="M73 12.5h26.3v29.7H73z"/></g><defs><path id="SVGID_17_" d="M115 27.2c0 7.9-1.5 10-7.9 10-1.6 0-2.9 0-4.3-.2v6.5c0 .4-.2.6-.5.6h-3.1c-.3 0-.5-.2-.5-.6V18.8c0-.4.2-.6.7-.7 2.9-.5 4.8-.6 7.3-.6 6.8 0 8.3 2 8.3 9.7zm-12.2-6.1v12.1c1.2.1 2.6.2 3.7.2 3.9 0 4.4-1.2 4.4-6.2 0-4.8-.4-6.2-4.2-6.2h-3.9z"/></defs><clipPath id="SVGID_18_"><use xlink:href="#SVGID_17_" overflow="visible"/></clipPath><g class="st8"><defs><path id="SVGID_19_" d="M0-.5h116.1v45.9H0z"/></defs><clipPath id="SVGID_20_"><use xlink:href="#SVGID_19_" overflow="visible"/></clipPath><path class="st9" d="M93.6 12.4H120v36.7H93.6z"/></g><defs><path id="SVGID_21_" d="M12.7 16.6c-.8.9-2.2.9-3.1.1-.9-.9-.9-2.3-.1-3.1.8-.9 2.2-.9 3.1-.1.9.8.9 2.2.1 3.1"/></defs><clipPath id="SVGID_22_"><use xlink:href="#SVGID_21_" overflow="visible"/></clipPath><g class="st10"><defs><path id="SVGID_23_" d="M0-.5h116.1v45.9H0z"/></defs><clipPath id="SVGID_24_"><use xlink:href="#SVGID_23_" overflow="visible"/></clipPath><path class="st11" d="M4 7.8h14.3v14.6H4z"/></g><defs><path id="SVGID_25_" d="M4.4 15l-.5 9.9 9-3c1.1-.3 2.1-.9 2.9-1.6 1.2-1.2 2-2.8 2.1-4.6l.7-10.1-9.3 3c-.3.1-.5.2-.8.3-2.3 1-4 3.2-4.1 6v.1zm-3.6-.3v-.2c.2-4.2 2.8-7.7 6.4-9.2.4-.2.8-.3 1.2-.4L22.5 0l-1 15.6c-.2 2.8-1.4 5.3-3.2 7.1-1.2 1.2-2.7 2.1-4.4 2.5L0 30l.8-15.3z"/></defs><clipPath id="SVGID_26_"><use xlink:href="#SVGID_25_" overflow="visible"/></clipPath><g class="st12"><defs><path id="SVGID_27_" d="M0-.5h116.1v45.9H0z"/></defs><clipPath id="SVGID_28_"><use xlink:href="#SVGID_27_" overflow="visible"/></clipPath><path class="st13" d="M-5-5.1h32.5v40.2H-5z"/></g></svg>