<?xml version="1.0" encoding="utf-8"?>
<!-- Generator: Adobe Illustrator 21.1.0, SVG Export Plug-In . SVG Version: 6.00 Build 0)  -->
<svg version="1.1" xmlns="http://www.w3.org/2000/svg" xmlns:xlink="http://www.w3.org/1999/xlink" x="0px" y="0px"
	 viewBox="0 0 31 27.9" style="enable-background:new 0 0 31 27.9;" xml:space="preserve">
<style type="text/css">
	.st0{fill:#1EB1ED;}
	.st1{fill:none;stroke:#FFFFFF;stroke-width:0.5;stroke-miterlimit:10;}
	.st2{fill:none;stroke:#FFFFFF;stroke-miterlimit:10;}
	.st3{fill:none;stroke:#FFFFFF;stroke-width:0.5;stroke-linecap:round;stroke-linejoin:round;stroke-miterlimit:10;}
	.st4{fill:none;stroke:#FFFFFF;stroke-linecap:round;stroke-linejoin:round;stroke-miterlimit:10;}
	.st5{fill:#F8931D;stroke:#FFFFFF;stroke-width:0.5;stroke-miterlimit:10;}
	.st6{fill:none;stroke:#414042;stroke-width:0.5;stroke-linecap:round;stroke-linejoin:round;stroke-miterlimit:10;}
	.st7{fill:none;}
	.st8{fill:#2AC1A9;stroke:#FFFFFF;stroke-miterlimit:10;}
	.st9{fill:none;stroke:#FFFFFF;stroke-linecap:round;stroke-miterlimit:10;}
	.st10{fill:none;stroke:#FFFFFF;stroke-width:0.75;stroke-linecap:round;stroke-miterlimit:10;}
	.st11{fill:none;stroke:#FFFFFF;stroke-width:0.75;stroke-linecap:round;stroke-linejoin:round;stroke-miterlimit:10;}
	.st12{fill:#FFFFFF;}
	.st13{fill:none;stroke:#FFFFFF;stroke-width:1.5;stroke-miterlimit:10;}
	.st14{fill:none;stroke:#FFFFFF;stroke-width:0.75;stroke-miterlimit:10;}
</style>
<g id="Layer_1">
</g>
<g id="Layer_3">
</g>
<g id="Layer_2">
	<line class="st3" x1="2.5" y1="17.1" x2="7.4" y2="19.1"/>
	<line class="st3" x1="9.6" y1="19" x2="13.6" y2="15.6"/>
	<line class="st3" x1="15.1" y1="16.6" x2="18.6" y2="8.8"/>
	<line class="st3" x1="22" y1="7.2" x2="29.5" y2="7.9"/>
	<circle class="st2" cx="20.6" cy="9.6" r="9.1"/>
	<circle class="st1" cx="20.2" cy="7.4" r="1.8"/>
	<ellipse transform="matrix(0.7071 -0.7071 0.7071 0.7071 -11.54 5.9245)" class="st1" cx="1.4" cy="16.9" rx="1.1" ry="1.1"/>
	<ellipse transform="matrix(0.7071 -0.7071 0.7071 0.7071 -11.2653 11.7485)" class="st1" cx="8.5" cy="19.5" rx="1.1" ry="1.1"/>
	<ellipse transform="matrix(0.7071 -0.7071 0.7071 0.7071 -17.2016 11.4173)" class="st1" cx="5.2" cy="26.5" rx="1.1" ry="1.1"/>
	<ellipse transform="matrix(0.7071 -0.7071 0.7071 0.7071 -4.2237 6.2488)" class="st1" cx="5.4" cy="8.2" rx="1.1" ry="1.1"/>
	<path class="st4" d="M24.4,18.4c0.2,0.1,4.2,6.8,4.2,6.8l1.8-1.1l-4.3-6.6"/>
	<line class="st3" x1="1.8" y1="15.9" x2="5" y2="9.2"/>
	<line class="st1" x1="8.2" y1="20.6" x2="5.7" y2="25.6"/>
</g>
<g id="Layer_4">
</g>
</svg>
