<?xml version="1.0" encoding="utf-8"?>
<!-- Generator: Adobe Illustrator 21.1.0, SVG Export Plug-In . SVG Version: 6.00 Build 0)  -->
<svg version="1.1" xmlns="http://www.w3.org/2000/svg" xmlns:xlink="http://www.w3.org/1999/xlink" x="0px" y="0px"
	 viewBox="0 0 22.2 28.9" style="enable-background:new 0 0 22.2 28.9;" xml:space="preserve">
<style type="text/css">
	.st0{fill:#1EB1ED;}
	.st1{fill:none;stroke:#FFFFFF;stroke-width:0.5;stroke-miterlimit:10;}
	.st2{fill:none;stroke:#FFFFFF;stroke-miterlimit:10;}
	.st3{fill:none;stroke:#FFFFFF;stroke-width:0.5;stroke-linecap:round;stroke-linejoin:round;stroke-miterlimit:10;}
	.st4{fill:none;stroke:#FFFFFF;stroke-linecap:round;stroke-linejoin:round;stroke-miterlimit:10;}
	.st5{fill:#F8931D;stroke:#FFFFFF;stroke-width:0.5;stroke-miterlimit:10;}
	.st6{fill:none;stroke:#414042;stroke-width:0.5;stroke-linecap:round;stroke-linejoin:round;stroke-miterlimit:10;}
	.st7{fill:none;}
	.st8{fill:#2AC1A9;stroke:#FFFFFF;stroke-miterlimit:10;}
	.st9{fill:none;stroke:#FFFFFF;stroke-linecap:round;stroke-miterlimit:10;}
	.st10{fill:none;stroke:#FFFFFF;stroke-width:0.75;stroke-linecap:round;stroke-miterlimit:10;}
	.st11{fill:none;stroke:#FFFFFF;stroke-width:0.75;stroke-linecap:round;stroke-linejoin:round;stroke-miterlimit:10;}
	.st12{fill:#FFFFFF;}
	.st13{fill:none;stroke:#FFFFFF;stroke-width:1.5;stroke-miterlimit:10;}
	.st14{fill:none;stroke:#FFFFFF;stroke-width:0.75;stroke-miterlimit:10;}
</style>
<g id="Layer_1">
</g>
<g id="Layer_3">
</g>
<g id="Layer_2">
	<path class="st4" d="M0.7,28.2l0.1-6.7c0-0.6,0.4-1,0.9-1.2l7.5-2c0,0,0-1.8,0-1.9l2.1,11.8L13,16.6c0,0.2,0,1.9,0,1.9l7.5,2
		c0.5,0.1,0.9,0.6,0.9,1.2l0.1,6.7"/>
	<path class="st4" d="M9,11.8v1.8h3.8v-1.8c2-1.1,2.7-3.5,1.6-5.4S11,3.6,9,4.7s-2.7,3.5-1.6,5.4C7.8,10.8,8.4,11.4,9,11.8L9,11.8z"
		/>
	<line class="st10" x1="16.4" y1="6.1" x2="18.6" y2="5.6"/>
	<line class="st10" x1="5.5" y1="6" x2="3.4" y2="5.5"/>
	<line class="st10" x1="7.5" y1="3.7" x2="5.9" y2="2.2"/>
	<line class="st10" x1="14.8" y1="4.1" x2="16.5" y2="2.6"/>
	<line class="st10" x1="11.1" y1="2.6" x2="11.2" y2="0.4"/>
	<line class="st4" x1="9.3" y1="15" x2="12.9" y2="15"/>
</g>
<g id="Layer_4">
</g>
</svg>
