<?xml version="1.0" encoding="utf-8"?>
<!-- Generator: Adobe Illustrator 21.1.0, SVG Export Plug-In . SVG Version: 6.00 Build 0)  -->
<svg version="1.1" xmlns="http://www.w3.org/2000/svg" xmlns:xlink="http://www.w3.org/1999/xlink" x="0px" y="0px"
	 viewBox="0 0 47.5 49.8" style="enable-background:new 0 0 47.5 49.8;" xml:space="preserve">
<style type="text/css">
	.st0{fill:#1EB1ED;}
	.st1{fill:none;stroke:#FFFFFF;stroke-width:0.5;stroke-miterlimit:10;}
	.st2{fill:none;stroke:#FFFFFF;stroke-miterlimit:10;}
	.st3{fill:none;stroke:#FFFFFF;stroke-width:0.5;stroke-linecap:round;stroke-linejoin:round;stroke-miterlimit:10;}
	.st4{fill:none;stroke:#FFFFFF;stroke-linecap:round;stroke-linejoin:round;stroke-miterlimit:10;}
	.st5{fill:#F8931D;stroke:#FFFFFF;stroke-width:0.5;stroke-miterlimit:10;}
	.st6{fill:none;stroke:#414042;stroke-width:0.5;stroke-linecap:round;stroke-linejoin:round;stroke-miterlimit:10;}
	.st7{fill:none;}
	.st8{fill:#2AC1A9;stroke:#FFFFFF;stroke-miterlimit:10;}
	.st9{fill:none;stroke:#FFFFFF;stroke-linecap:round;stroke-miterlimit:10;}
	.st10{fill:none;stroke:#FFFFFF;stroke-width:0.75;stroke-linecap:round;stroke-miterlimit:10;}
	.st11{fill:none;stroke:#FFFFFF;stroke-width:0.75;stroke-linecap:round;stroke-linejoin:round;stroke-miterlimit:10;}
	.st12{fill:#FFFFFF;}
	.st13{fill:none;stroke:#FFFFFF;stroke-width:1.5;stroke-miterlimit:10;}
	.st14{fill:none;stroke:#FFFFFF;stroke-width:0.75;stroke-miterlimit:10;}
</style>
<g id="Layer_1">
</g>
<g id="Layer_3">
</g>
<g id="Layer_2">
</g>
<g id="Layer_4">
	<polyline class="st2" points="30.2,13.2 35.3,16.1 35.3,20.3 39.6,22.9 39.6,31.4 35.4,34 35.4,37.6 28,42.3 24.3,40.1 24.3,13.8 
		27.8,11.8 30.2,13.2 	"/>
	<polyline class="st1" points="29.6,18.9 28.6,19.4 28.6,23.6 31.8,25.6 31.8,29.7 28.6,31.4 28.6,35.9 29.2,36.6 	"/>
	<line class="st1" x1="35.3" y1="20.3" x2="33.5" y2="21.1"/>
	<line class="st1" x1="39.6" y1="27.8" x2="37.7" y2="27.8"/>
	<line class="st1" x1="35.3" y1="34" x2="33.8" y2="33.8"/>
	<line class="st1" x1="23.6" y1="27.8" x2="26.3" y2="27.8"/>
	<polygon class="st2" points="24.2,13.8 20.7,11.8 13.2,16.1 13.2,20.3 8.9,22.9 8.9,31.4 13.1,34 13.1,37.6 20.5,42.3 24.3,40.1 	
		"/>
	<polyline class="st1" points="19,18.9 19.9,19.4 19.9,23.6 16.7,25.6 16.7,29.7 19.9,31.4 19.9,35.9 19.2,36.7 	"/>
	<line class="st1" x1="13.2" y1="20.3" x2="15" y2="21.2"/>
	<line class="st1" x1="8.9" y1="27.8" x2="10.8" y2="27.8"/>
	<line class="st1" x1="13.2" y1="34.1" x2="14.6" y2="33.6"/>
	<line class="st1" x1="24.9" y1="27.8" x2="22.2" y2="27.8"/>
	
		<rect x="17.7" y="17.7" transform="matrix(-1 -4.384461e-11 4.384461e-11 -1 36.5758 36.6175)" class="st1" width="1.2" height="1.2"/>
	
		<rect x="15" y="21.1" transform="matrix(-1 -4.922919e-11 4.922919e-11 -1 31.0846 43.3233)" class="st1" width="1.2" height="1.2"/>
	
		<rect x="11" y="27.2" transform="matrix(-1 -4.538337e-11 4.538337e-11 -1 23.2144 55.5161)" class="st1" width="1.2" height="1.2"/>
	
		<rect x="14.7" y="32.5" transform="matrix(-1 -4.076795e-11 4.076795e-11 -1 30.5031 66.1298)" class="st1" width="1.2" height="1.2"/>
	
		<rect x="18.3" y="36.5" transform="matrix(-1 -4.384461e-11 4.384461e-11 -1 37.7582 74.2216)" class="st1" width="1.2" height="1.2"/>
	
		<rect x="21" y="27.2" transform="matrix(-1 -4.307544e-11 4.307544e-11 -1 43.1588 55.5157)" class="st1" width="1.2" height="1.2"/>
	<rect x="26.3" y="27.2" class="st1" width="1.2" height="1.2"/>
	<rect x="29.6" y="17.7" class="st1" width="1.2" height="1.2"/>
	<rect x="32.4" y="21.1" class="st1" width="1.2" height="1.2"/>
	<rect x="36.4" y="27.2" class="st1" width="1.2" height="1.2"/>
	<rect x="32.5" y="32.6" class="st1" width="1.2" height="1.2"/>
	<rect x="29" y="36.5" class="st1" width="1.2" height="1.2"/>
</g>
</svg>
