<?xml version="1.0" encoding="utf-8"?>
<!-- Generator: Adobe Illustrator 21.1.0, SVG Export Plug-In . SVG Version: 6.00 Build 0)  -->
<svg version="1.1" xmlns="http://www.w3.org/2000/svg" xmlns:xlink="http://www.w3.org/1999/xlink" x="0px" y="0px"
	 viewBox="0 0 47.5 49.8" style="enable-background:new 0 0 47.5 49.8;" xml:space="preserve">
<style type="text/css">
	.st0{fill:#1EB1ED;}
	.st1{fill:none;stroke:#FFFFFF;stroke-width:0.5;stroke-miterlimit:10;}
	.st2{fill:none;stroke:#FFFFFF;stroke-miterlimit:10;}
	.st3{fill:none;stroke:#FFFFFF;stroke-width:0.5;stroke-linecap:round;stroke-linejoin:round;stroke-miterlimit:10;}
	.st4{fill:none;stroke:#FFFFFF;stroke-linecap:round;stroke-linejoin:round;stroke-miterlimit:10;}
	.st5{fill:#F8931D;stroke:#FFFFFF;stroke-width:0.5;stroke-miterlimit:10;}
	.st6{fill:none;stroke:#414042;stroke-width:0.5;stroke-linecap:round;stroke-linejoin:round;stroke-miterlimit:10;}
	.st7{fill:none;}
	.st8{fill:#2AC1A9;stroke:#FFFFFF;stroke-miterlimit:10;}
	.st9{fill:none;stroke:#FFFFFF;stroke-linecap:round;stroke-miterlimit:10;}
	.st10{fill:none;stroke:#FFFFFF;stroke-width:0.75;stroke-linecap:round;stroke-miterlimit:10;}
	.st11{fill:none;stroke:#FFFFFF;stroke-width:0.75;stroke-linecap:round;stroke-linejoin:round;stroke-miterlimit:10;}
	.st12{fill:#FFFFFF;}
	.st13{fill:none;stroke:#FFFFFF;stroke-width:1.5;stroke-miterlimit:10;}
	.st14{fill:none;stroke:#FFFFFF;stroke-width:0.75;stroke-miterlimit:10;}
</style>
<g id="Layer_1">
</g>
<g id="Layer_3">
</g>
<g id="Layer_2">
	<path class="st4" d="M33.5,39.7l-0.1-0.2c-1-2.6-1.2-4.7-0.4-6.5c0.4-1.1,1.1-1.6,1.5-2.1l0.1-0.1c3.5-3.5,4.6-7.6,3.4-12.2
		c0,0-0.1-0.4-0.1-0.5c0-0.2-0.2-0.6-0.2-0.6c-0.2-0.8-0.6-1.5-1-2.2c-3-4.9-9.1-6.3-13.5-5.7c-4,0.6-7,2.6-8.6,5.7
		c-0.4,0.7-0.6,1.4-0.8,2.2l-0.1,0.5c0,0,0,0,0,0.1l-0.1,0.6c-0.1,0.9-0.2,1.9,0,2.9c0,0,0,0,0,0.1c0,0.1,0,0.2,0,0.3
		c0,0.4-0.1,0.7-0.2,1.1L11,27.7c-0.2,0.4-0.2,0.9,0.1,1.3c0.2,0.4,0.6,0.6,1.1,0.6h1.2v6.2c0,0.9,0.7,1.6,1.6,1.6l3.6,0.1
		c0.4,0,0.7,0.3,0.7,0.7v1.7"/>
	<g>
		<path class="st3" d="M27.6,16.4c0.5,1.7,0.9,4,0.9,6.6c0,5.3-1.4,9.5-3.2,9.5c-1.7,0-3.2-4.3-3.2-9.5s1.4-9.5,3.2-9.5
			c0.5,0,1,0.4,1.5,1.1"/>
		<circle class="st3" cx="27.3" cy="15.5" r="0.9"/>
		<path class="st3" d="M18.8,24.6c1.2-1.4,2.9-2.9,5.1-4.3c4.4-2.8,8.8-3.9,9.7-2.5c0.9,1.5-1.9,5-6.3,7.8s-8.8,3.9-9.7,2.5
			c-0.3-0.5-0.2-1.1,0.1-1.8"/>
		<ellipse transform="matrix(0.8429 -0.5381 0.5381 0.8429 -10.7848 13.7604)" class="st3" cx="18.2" cy="25.3" rx="0.9" ry="0.9"/>
		<path class="st3" d="M32.2,24.6c-1.1-1.4-2.9-3-5-4.4c-4.4-2.9-8.7-4.1-9.7-2.7c-1,1.5,1.8,5,6.2,7.9s8.7,4.1,9.7,2.7
			c0.3-0.4,0.2-1.1-0.1-1.8"/>
		<ellipse transform="matrix(0.5554 -0.8316 0.8316 0.5554 -6.4888 38.5995)" class="st3" cx="32.9" cy="25.4" rx="0.9" ry="0.9"/>
		<circle class="st3" cx="25.5" cy="22.8" r="0.9"/>
	</g>
</g>
<g id="Layer_4">
</g>
</svg>
