<?xml version="1.0" encoding="utf-8"?>
<!-- Generator: Adobe Illustrator 21.1.0, SVG Export Plug-In . SVG Version: 6.00 Build 0)  -->
<svg version="1.1" id="Layer_1" xmlns="http://www.w3.org/2000/svg" xmlns:xlink="http://www.w3.org/1999/xlink" x="0px" y="0px"
	 viewBox="0 0 31 27.9" style="enable-background:new 0 0 31 27.9;" xml:space="preserve">
<style type="text/css">
	.st0{fill:none;stroke:#FF7707;stroke-width:0.5;stroke-linecap:round;stroke-linejoin:round;stroke-miterlimit:10;}
	.st1{fill:none;stroke:#FF7707;stroke-miterlimit:10;}
	.st2{fill:none;stroke:#FF7707;stroke-width:0.5;stroke-miterlimit:10;}
	.st3{fill:none;stroke:#FF7707;stroke-linecap:round;stroke-linejoin:round;stroke-miterlimit:10;}
</style>
<g id="Layer_1_1_">
</g>
<g id="Layer_3">
</g>
<g id="Layer_2">
	<line class="st0" x1="2.5" y1="17.1" x2="7.4" y2="19.1"/>
	<line class="st0" x1="9.6" y1="19" x2="13.6" y2="15.6"/>
	<line class="st0" x1="15.1" y1="16.6" x2="18.6" y2="8.8"/>
	<line class="st0" x1="22" y1="7.2" x2="29.5" y2="7.9"/>
	<circle class="st1" cx="20.6" cy="9.6" r="9.1"/>
	<circle class="st2" cx="20.2" cy="7.4" r="1.8"/>
	<ellipse transform="matrix(0.7071 -0.7071 0.7071 0.7071 -11.5292 5.9353)" class="st2" cx="1.4" cy="16.9" rx="1.1" ry="1.1"/>
	<ellipse transform="matrix(0.7071 -0.7071 0.7071 0.7071 -11.308 11.7533)" class="st2" cx="8.5" cy="19.5" rx="1.1" ry="1.1"/>
	<ellipse transform="matrix(0.7071 -0.7071 0.7071 0.7071 -17.1962 11.4419)" class="st2" cx="5.2" cy="26.5" rx="1.1" ry="1.1"/>
	<ellipse transform="matrix(0.7071 -0.7071 0.7071 0.7071 -4.239 6.2235)" class="st2" cx="5.4" cy="8.2" rx="1.1" ry="1.1"/>
	<path class="st3" d="M24.4,18.4c0.2,0.1,4.2,6.8,4.2,6.8l1.8-1.1l-4.3-6.6"/>
	<line class="st0" x1="1.8" y1="15.8" x2="5" y2="9.2"/>
	<line class="st2" x1="8.2" y1="20.6" x2="5.7" y2="25.6"/>
</g>
<g id="Layer_4">
</g>
</svg>
