<?xml version="1.0" encoding="utf-8"?>
<!-- Generator: Adobe Illustrator 21.1.0, SVG Export Plug-In . SVG Version: 6.00 Build 0)  -->
<svg version="1.1" id="Layer_1" xmlns="http://www.w3.org/2000/svg" xmlns:xlink="http://www.w3.org/1999/xlink" x="0px" y="0px"
	 viewBox="0 0 46.4 46.2" style="enable-background:new 0 0 46.4 46.2;" xml:space="preserve">
<style type="text/css">
	.st0{fill:none;stroke:#FF7704;stroke-miterlimit:10;}
	.st1{fill:none;stroke:#FF7704;stroke-width:0.5;stroke-miterlimit:10;}
	.st2{fill:#FF7704;}
</style>
<g id="Layer_1_1_">
</g>
<g id="Layer_3">
</g>
<g id="Layer_2">
</g>
<g id="Layer_4">
	<polyline class="st0" points="31.9,2.6 39.5,6.9 39.5,13.1 45.8,16.9 45.8,29.4 39.6,33.3 39.6,38.6 28.7,45.5 23.3,42.3 23.3,3.5 
		28.4,0.6 31.9,2.6 	"/>
	<polyline class="st1" points="31.1,11 29.6,11.8 29.6,18 34.3,20.9 34.3,26.9 29.6,29.4 29.6,36.1 30.5,37.1 	"/>
	<line class="st1" x1="39.5" y1="13.1" x2="36.8" y2="14.3"/>
	<line class="st1" x1="45.8" y1="24.1" x2="43" y2="24.1"/>
	<line class="st1" x1="39.5" y1="33.3" x2="37.2" y2="33"/>
	<line class="st1" x1="22.2" y1="24.1" x2="26.2" y2="24.1"/>
	<polygon class="st0" points="23.1,3.5 18,0.6 6.9,6.9 6.9,13.1 0.6,16.9 0.6,29.4 6.8,33.3 6.8,38.6 17.7,45.5 23.3,42.3 	"/>
	<polyline class="st1" points="15.4,11 16.8,11.8 16.8,18 12.1,20.9 12.1,26.9 16.8,29.4 16.8,36.1 15.7,37.3 	"/>
	<line class="st1" x1="6.9" y1="13.1" x2="9.6" y2="14.4"/>
	<line class="st1" x1="0.6" y1="24.1" x2="3.4" y2="24.1"/>
	<line class="st1" x1="6.9" y1="33.4" x2="9" y2="32.7"/>
	<line class="st1" x1="24.1" y1="24.1" x2="20.2" y2="24.1"/>
	<rect x="13.5" y="9.3" class="st1" width="1.8" height="1.8"/>
	<rect x="9.4" y="14.2" class="st1" width="1.8" height="1.8"/>
	<rect x="3.7" y="23.1" class="st1" width="1.8" height="1.8"/>
	<rect x="9" y="31" class="st1" width="1.8" height="1.8"/>
	<rect x="14.4" y="37" class="st1" width="1.8" height="1.8"/>
	<rect x="18.3" y="23.1" class="st1" width="1.8" height="1.8"/>
	<rect x="26.2" y="23.3" class="st1" width="1.8" height="1.8"/>
	<rect x="31.1" y="9.3" class="st1" width="1.8" height="1.8"/>
	<rect x="35.2" y="14.3" class="st1" width="1.8" height="1.8"/>
	<rect x="41.1" y="23.3" class="st1" width="1.8" height="1.8"/>
	<rect x="35.3" y="31.2" class="st1" width="1.8" height="1.8"/>
	<rect x="30.2" y="37" class="st1" width="1.8" height="1.8"/>
</g>
<circle class="st2" cx="-44.9" cy="21.1" r="2.3"/>
</svg>
