<?xml version="1.0" encoding="utf-8"?>
<!-- Generator: Adobe Illustrator 21.1.0, SVG Export Plug-In . SVG Version: 6.00 Build 0)  -->
<svg version="1.1" id="Layer_1" xmlns="http://www.w3.org/2000/svg" xmlns:xlink="http://www.w3.org/1999/xlink" x="0px" y="0px"
	 viewBox="0 0 45.7 49.8" style="enable-background:new 0 0 45.7 49.8;" xml:space="preserve">
<style type="text/css">
	.st0{fill:none;stroke:#FF7704;stroke-linecap:round;stroke-linejoin:round;stroke-miterlimit:10;}
	.st1{fill:none;stroke:#FF7704;stroke-width:0.5;stroke-linecap:round;stroke-linejoin:round;stroke-miterlimit:10;}
</style>
<g id="Layer_1_1_">
</g>
<g id="Layer_3">
</g>
<g id="Layer_2">
	<path class="st0" d="M37.1,49.3L36.9,49c-1.6-4.2-1.9-7.6-0.6-10.5c0.6-1.8,1.8-2.6,2.4-3.4l0.2-0.2c5.6-5.6,7.4-12.2,5.5-19.7
		c0,0-0.2-0.6-0.2-0.8c0-0.3-0.3-1-0.3-1c-0.3-1.3-1-2.4-1.6-3.5C37.4,2.1,27.6-0.1,20.5,0.8C14,1.8,9.2,5,6.6,10
		c-0.6,1.1-1,2.3-1.3,3.5l-0.2,0.8c0,0,0,0,0,0.2l-0.2,1c-0.2,1.4-0.3,3.1,0,4.7c0,0,0,0,0,0.2s0,0.3,0,0.5c0,0.6-0.2,1.1-0.3,1.8
		L0.8,30c-0.3,0.6-0.3,1.4,0.2,2.1c0.3,0.6,1,1,1.8,1h1.9v10c0,1.4,1.1,2.6,2.6,2.6l5.8,0.2c0.6,0,1.1,0.5,1.1,1.1l0,2.5"/>
	<g>
		<path class="st1" d="M27.6,11.8c0.8,2.7,1.4,6.4,1.4,10.6c0,8.5-2.3,15.3-5.2,15.3c-2.7,0-5.2-6.9-5.2-15.3S21,7.1,23.9,7.1
			c0.8,0,1.6,0.6,2.4,1.8"/>
		<circle class="st1" cx="27.1" cy="10.3" r="1.4"/>
		<path class="st1" d="M13.4,25c1.9-2.3,4.7-4.7,8.2-6.9c7.1-4.5,14.2-6.3,15.6-4c1.4,2.4-3.1,8.1-10.1,12.6s-14.2,6.3-15.6,4
			c-0.5-0.8-0.3-1.8,0.2-2.9"/>
		<ellipse transform="matrix(0.8429 -0.5381 0.5381 0.8429 -12.1069 10.7682)" class="st1" cx="12.4" cy="26.1" rx="1.4" ry="1.4"/>
		<path class="st1" d="M35,25c-1.8-2.3-4.7-4.8-8.1-7.1c-7.1-4.7-14-6.6-15.6-4.3c-1.6,2.4,2.9,8.1,10,12.7s14,6.6,15.6,4.3
			c0.5-0.6,0.3-1.8-0.2-2.9"/>
		<ellipse transform="matrix(0.5554 -0.8316 0.8316 0.5554 -5.7285 41.6941)" class="st1" cx="36.1" cy="26.2" rx="1.4" ry="1.4"/>
		<circle class="st1" cx="24.2" cy="22.1" r="1.4"/>
	</g>
</g>
<g id="Layer_4">
</g>
</svg>
